<?xml version="1.0" encoding="utf-8"?>
<!-- Generator: Adobe Illustrator 27.1.1, SVG Export Plug-In . SVG Version: 6.00 Build 0)  -->
<svg version="1.1" id="Layer_1" xmlns="http://www.w3.org/2000/svg" xmlns:xlink="http://www.w3.org/1999/xlink" x="0px" y="0px"
	 viewBox="0 0 249.9 292.1" style="enable-background:new 0 0 249.9 292.1;" xml:space="preserve">
<style type="text/css">
	.st0{display:none;}
	.st1{display:inline;}
	.st2{fill:#141414;}
	.st3{fill:#3C3C3C;}
	.st4{display:inline;fill:#202020;}
</style>
<g id="behind" class="st0">
	<g class="st1">
		<g>
			<path d="M144.7,213.1c1,1.1,2.1,2.2,2.9,3.5c5.1,7.5,10.3,15.1,15.3,22.7c1,1.6,1.7,3.4,2.2,5.3c0.3,1-0.2,2.2-0.3,3.3
				c-0.5,0.1-0.9,0.2-1.4,0.3c-2.7-4.9-5.4-9.7-8.4-15c-9.6,3.9-18.8,7.5-28.1,11.3c1.5,2.4,3.3,4.6,4.3,7.1s1.2,5.3,1.8,8.1
				c9.4,2,10.7,10.7,10.6,21.3c6.9,5.8,8.1,13.5,7.4,22c-0.1,1.3,0.5,2.8,1.2,3.9c3.7,5.8,2.8,11.9,1.8,18.1c-0.2,1-1.3,1.7-2,2.6
				c-0.4,0-0.8-0.1-1.2-0.1c-0.2-1.1-0.6-2.1-0.5-3.2c0.1-3.6,0.8-7.1,0.6-10.7c-0.2-5-2.9-7.5-7.9-7.9c-0.1,0-0.2,0-0.4,0
				c-7.2-0.7-8.1-2.5-4.2-8.8c-0.8-1.1-1.7-2.3-2.6-3.5c-1.7-2.2-1.9-4.2,0.3-6.3c5.2-5.1,5.7-16.4,0.8-21.7c-0.9-1-2.8-1.8-4.1-1.7
				c-2.7,0.2-5.4,1-8.1,1.8c-4.3,1.2-6.1,0.1-7.9-3.9c-1-2.2-3-4.1-4-6.3c-0.8-1.8-1.5-4.1-1.1-5.9c1.6-6,1.3-8.2-2.8-13.7
				c-2.7,0-5.7,0-8.7,0c-3.6,0-6.3-1.4-7.4-5.1c-0.3-1.1-1-2.2-1.7-3.1c-2.1-2.9-2.6-5.7,0.4-8.1c0-1.4,0-2.5,0-4.1
				c-5.4-0.9-9.4,2.8-14.3,4c0-1.5,0-2.9,0-4.2c13.6-8.7,37.1-4.2,33.4,16.9c1.8,2.8,3.5,5.5,5.3,8.3c2.4,0.4,5.1,0.9,7.7,1.3
				c0.1,0.2,0.1,0.5,0.2,0.7c9.6-3.9,19.2-7.9,28.7-11.8c-2.3-6-7.8-10.2-9.3-16.3C143.6,213.7,144.2,213.4,144.7,213.1z
				 M106.4,225.8c-2.1,0.5-3.9,1-6.2,1.5c-1-2.1-2.4-3.9-2.6-5.9s0.6-4.1,1.1-6.6c-1.6-0.1-2.9-0.2-3.9-0.3c-0.6,3.3-1,6.1-1.6,9.7
				c1.1,1.9,2.6,4.6,4.2,7.4c3,0,6,0,9.1,0C106.4,229.5,106.4,227.9,106.4,225.8z M128.4,257.4c-3.9,0.9-6.4-0.8-9-3.4
				c-3.2-3.2-0.4-6.5-0.8-9.9c-0.9,0.1-1.7,0.1-2.3,0.2c-0.6,2.7-1.2,5.1-1.7,7.1c2.4,3.8,4.6,7.3,7.1,11.1c2.3-0.7,4.7-1.5,7.4-2.3
				C128.7,259.2,128.6,258.4,128.4,257.4z M142.6,284.5c-1.8,2.1-3.2,3.9-4.8,5.8c3.2,3,5.8,6.3,2.5,10.9c1.4,0.2,2.3,0.4,3.2,0.5
				c1,0.1,2.1,0,3.4,0c0.1-1.1,0.1-2.2,0.2-3.1c-5.2-3.2-5.2-7.9-2.4-11.8C144.1,286.2,143.4,285.5,142.6,284.5z"/>
			<path d="M254.4,296.7c0.8,1.1,1.3,1.8,1.8,2.5c1.7,2.8,1,4.8-2.3,5.7c-1.3,0.4-2.6,0.5-3.9,0.6c-4.9,0.5-7.6,2.8-7.8,7.6
				c-0.2,3.5,0.4,7.1,0.5,10.7c0,1.1-0.2,2.3-0.4,3.4c-0.6,0.1-1.2,0.2-1.8,0.2c-0.7-1.7-2-3.4-2.1-5.1c-0.3-5.7-1.1-11.5,3-16.5
				c0.6-0.8,0.4-2.2,0.6-3.4c0.6-4.7,0.6-9.5,1.9-14c0.8-2.8,3.3-5.2,5.4-8.3c0.9-7.6-0.9-17.3,11.2-20.6c-0.7-5.7,2.2-10.4,5.8-15
				c-9.6-3.8-18.7-7.5-28.3-11.4c-2.9,5.2-5.5,10.1-8.2,14.9c-0.4,0-0.8,0-1.2-0.1c-0.3-1-0.9-2.1-0.7-3.1c0.4-1.7,1-3.5,2-5
				c5.6-8.5,11.4-16.9,17.2-25.4c0.4-0.5,1-0.9,1.6-1.3c0.4,0.1,0.8,0.2,1.1,0.4c-0.4,1.3-0.4,2.8-1.1,3.9
				c-2.6,4.1-5.4,8.2-8.3,12.5c9.8,4.1,19.3,8,27.9,11.5c3.6-0.6,6.2-1.1,9-1.6c1.7-2.6,3.5-5.4,5.3-8.3
				c-3.6-20.8,19.2-25.2,32-17.6c0,1.3,0,2.7,0,4.1c-4.2-1.3-8.2-2.6-12.7-4c-0.2,2.2-0.3,3.3-0.4,4.7c3.6,2.7,1.8,5.3,0.5,8.7
				c-2.7,7.2-7.7,8.9-14.6,7.6c-0.4-0.1-0.7,0-1.1,0c-0.7,0.1-1.4,0.2-2.1,0.4c-3.7,3.9-4.8,8.3-2.7,13.2c1,2.6,0.4,4.5-1.2,6.6
				c-1.7,2.1-3,4.5-4.3,7c-1.5,2.9-3.6,3.8-7.3,2.8c-2.6-0.7-5.1-1.4-7.7-1.9s-4.4,0.8-5.7,3c-4,6.5-3.2,15.3,2.1,20.8
				c1.9,2,1.6,3.8,0.2,5.8C256.4,294.2,255.4,295.4,254.4,296.7z M286.5,231.7c3.3,0,6.2,0,9,0c1.7-3,3.2-5.8,4.1-7.4
				c-0.6-4.1-1-6.9-1.5-10c-1.3,0.3-2.6,0.5-4.2,0.9c1.7,4.6,2.3,8.6-1.9,12.1c-1.7-0.4-3.5-0.9-5.6-1.4
				C286.5,227.8,286.5,229.5,286.5,231.7z M278.4,251.3c-0.6-2.3-1.2-4.7-1.8-7.3c-0.8,0.1-1.6,0.2-2.3,0.3c1.4,10-0.8,13-9.8,13.4
				c-0.1,0.8-0.2,1.7-0.4,2.6c2.6,0.8,5,1.5,7.2,2.2C273.7,258.7,275.9,255.2,278.4,251.3z M250.3,284.6c-0.8,0.8-1.5,1.6-2.2,2.3
				c3.1,5.1,2.5,8.4-2.4,11.9c0.1,1,0.3,2.1,0.4,3.3c2.3-0.3,4.3-0.5,6.6-0.8c-3.7-4.9-0.5-7.9,2.2-11
				C253.4,288.4,252,286.6,250.3,284.6z"/>
			<path d="M187.8,129c1.5,0.6,2.8,1.1,4.4,1.6c1.1,3.4,2.2,7,3.3,10.6c0.6,0,1.3,0,1.9,0c1.1-3.5,2.2-6.9,3.3-10.6
				c1.3-0.5,2.7-1.1,4.8-1.9c0.4,1.5,1,2.9,1.1,4.4c0.6,6-1.7,11-5.7,15.3c-1.9,2-4.2,2.8-6.9,1.4
				C187.8,146.7,184.3,135.3,187.8,129z"/>
			<path d="M229.8,148.7c-6.6-1.4-10.7-5.6-14.5-10.9c0.7-0.9,1.3-1.6,2.1-2.6c2,1.5,3.7,2.7,5.7,4.3c-1.6-6.4-2.7-12.5-9.3-16.5
				c2.5-1.3,4-2.1,5.3-2.9C227.4,122.6,233.8,139.1,229.8,148.7z"/>
			<path d="M162.9,148c-3.6-8.6,2.4-24.7,10.6-28c1.4,0.6,3,1.3,4.9,2.3c-2.2,2.9-4.5,5.2-5.9,7.9s-1.8,5.8-2.8,9.4
				c2.1-1.7,3.7-2.9,5.5-4.4c0.9,0.7,1.6,1.4,2.2,1.9C174.9,143.1,167.8,148.4,162.9,148z"/>
			<path d="M192,294.2c0.4,8.6-1.3,16.8-6.3,24c-7.2,10.4-17.3,17.7-27.9,24.2c-1.6,1-3.6,1.4-5.5,1.7c-0.8,0.1-1.8-0.5-3.7-1.2
				c1.9-1.3,2.9-2.1,4-2.6c18.4-8.7,33.7-20,36.4-41.9c0.2-1.6,1-3.2,1.5-4.8C191,293.8,191.5,294,192,294.2z"/>
			<path d="M202.1,293.2c0.7,1.5,1.6,2.5,1.6,3.5c0.8,16.6,10.8,27.4,23.6,36.4c4.2,2.9,9,4.9,13.5,7.3c0.8,0.4,1.6,1,3.5,2.2
				c-1.9,0.8-2.9,1.6-3.8,1.5c-2-0.4-4.1-0.8-5.8-1.9c-9.8-6-19-12.9-26.1-22c-5.7-7.2-7.7-15.6-7.8-24.5c0-0.4,0-0.7,0.1-1.1
				C200.9,294.4,201.2,294.2,202.1,293.2z"/>
			<path d="M103.5,279.9c1.8,9.2,3.5,18.5-1.5,27.4c-0.8,1.4-2,2.7-3.3,3.7c-0.7,0.6-2.1,0.4-3.4,0c7.9-8.3,8.1-17.7,5.5-28.8
				c-4.1,2.8-7.8,5.2-11.5,7.8C89,285,96.9,279.5,103.5,279.9z"/>
			<path d="M297,311.7c-1.2-0.4-2.7-0.4-3.5-1.2c-4-3.7-5.6-8.8-5.8-13.9c-0.3-5.5,0.8-11.1,1.2-16.5c6-1.1,14.3,4.3,15,10.1
				c-4-2.7-7.6-5.2-11.8-8c-2.5,10.9-2.7,20.3,5.7,28.1C297.5,310.8,297.3,311.2,297,311.7z"/>
			<path d="M233.9,130.1c2.5,0.3,5,0.6,8.1,1c-1.6-2.1-2.8-3.8-4.4-6.1c2.2-0.5,3.6-0.8,6-1.3c2,3.2,4.1,6.5,6.3,10.1
				c-4.1,3.7-8.2,4-12.3,3.6c-1.4-2.2-2.5-4.1-3.7-6C233.8,130.9,233.9,130.5,233.9,130.1z"/>
			<path d="M159.1,131.2c-1.2,1.9-2.3,3.8-3.8,6.1c-3.9,0.6-7.9,0.1-12.3-3.3c2.1-3.5,4.1-7,6.2-10.3c2.3,0.5,3.8,0.8,6.2,1.2
				c-1.6,2.2-2.9,3.8-4.6,6c3.1-0.3,5.6-0.6,8.1-0.9C159,130.5,159.1,130.9,159.1,131.2z"/>
			<path d="M101.8,315.9c1.5-3.2,3.9-3.7,6.5-3.6c4.2,0.1,14.4,4.2,18,7.1c-1.9,5.5-14.2,12.4-18.8,9.8c5.1-2.9,9.8-5.6,15.4-8.8
				C115.8,316.8,109.8,313.2,101.8,315.9z"/>
			<path d="M266.6,319.5c6.9-6.6,20.5-9,24.6-3.8c-8-2.5-14.1,1-21.2,4.6c5.5,3.1,10.2,5.8,15.1,8.5
				C281.7,332.1,269.3,325.6,266.6,319.5z"/>
			<path d="M165.3,116.7c-1.9,0-3.7,0-5.5,0c-0.1,0.2-0.1,0.5-0.2,0.7c-1.2-1.1-2.5-2.1-3.8-3.2c0-1.8,0-3.6,0-4.8
				c2.7-1.6,4.9-3,7.6-4.6C167.7,105.8,169,112.5,165.3,116.7z"/>
			<path d="M237.1,109.5c0.1,1.1,0.1,2.8,0.2,4.4c-1.4,1.2-2.6,2.3-3.4,3.1c-2.2-0.2-4-0.3-6.4-0.6c-3.3-2.9-2.5-9.6,1.9-11.9
				C231.7,106.1,234,107.6,237.1,109.5z"/>
			<path d="M190.9,122.2c1.8-2.2,3.6-4.5,5.7-7c2.1,2.7,3.7,4.9,5.3,7c-0.6,2.8-2.7,2.9-4.8,2.9C194.8,125,192.1,125.5,190.9,122.2z
				"/>
			<path d="M116.3,310.5c0.6-3.8,1.1-6.9,1.7-10.3c-2.9-0.3-5.5-0.5-8.1-0.7c0-0.5,0.1-1,0.1-1.5c3.2,0,6.5,0,9.7,0
				C122,302,120.8,308.4,116.3,310.5z"/>
			<path d="M273.1,298c3.4,0,6.6,0,9.9,0c0,0.5,0,1,0,1.5c-2.5,0.2-5,0.4-8,0.6c0.5,3.3,1,6.6,1.5,10.5
				C272.2,308.4,270.9,302.3,273.1,298z"/>
			<path d="M80.5,301.9c-1.3-5.6-2.5-11-3.8-16.7C82.5,289,84.4,298.4,80.5,301.9z"/>
			<path d="M314.6,287.2c-0.6,4.9-1.2,9.7-1.8,14.6C308.8,300,309.3,293.1,314.6,287.2z"/>
		</g>
	</g>
</g>
<g id="Layer_4">
	<g>
		<g>
			<path class="st2" d="M236.7,121.2c3.8,2.5,8.2,4.1,8.9,9.4c-1-0.8-2.1-1.6-3-2.4c-6.2-5.9-14-6.4-19.1-1.3
				c-4.4,4.4-4.5,10.9-0.2,15.6c0.6,0.6,0.8,1.6,1.2,2.3c3.7,0.4,6.6-0.1,8.5-3.8c1-2.1,3.1-3.6,4.7-5.4c-1.5-2.8-3.5-4.5-6.5-3.5
				c-1.4,0.4-2.4,2-3.5,3c0.2,0.3,0.4,0.7,0.6,1c0.8,0.1,1.6,0.2,2.3,0.4c0.8,0.3,1.5,0.8,2.3,1.1c-0.7,0.7-1.4,1.7-2.2,1.9
				c-3.3,0.9-5.8-1.6-5.3-4.9c0.7-4.8,6.8-7.1,11.2-4.2c1.3,0.9,2.3,2.1,3.5,3.2c1.9-0.2,3.9-0.4,6.5-0.7c-4.7,3.9-8.6,7.2-13,10.9
				c5.3,2.3,10.7,2.4,12.8,7.5c-5.8-2.5-11.6-4.1-17.9-3.8c-9.5,0.4-14.2,4.8-14.7,14.2c-0.1,1.2,0,2.4-0.1,3.6
				c-0.7,6.1,1,10.7,7.4,13c2.2,0.8,4,2.6,5.6,3.7c2.1-1,4-1.8,5.9-2.8c0.5-0.2,0.8-0.8,1-1.3c2.1-4.9,6.8-6.1,11.1-7.9
				c0.3-0.1,0.9,0.2,1.8,1.2c-1.9,1.2-3.8,2.4-5.8,3.5c-4.7,2.8-4.8,2.9-3.4,7.9c1.9,6.9,0.3,10.6-6.6,14.4
				c-4.1,2.3-7.2,5.2-8.7,9.8c2.1,2.3,3.5,1.9,5-0.8c1.3-2.2,2.7-4.8,4.8-6.1c6.4-4,9.1-9.8,10-16.9c0.6-4.5,2.4-6.1,8-7.3
				c-2.3,2.2-4,3.9-5.8,5.6c0.3,0.3,0.5,0.5,0.8,0.8c0.4-0.4,0.7-1,1.1-1.3c0.8-0.5,2-1.5,2.6-1.2c0.7,0.3,1.4,1.6,1.4,2.5
				c0,2.4-0.1,4.9-0.8,7.1c-1.6,4.9-3.5,9.6-5.3,14.4c3.7,1.7,3.6,2.2,1,4.9c-2.9,3-5.7,6.1-8,9.6c-4.1,6.3-3.4,12.9,0.6,18.9
				c2.7,4.1,6,7.7,9.2,11.5c0.7,0.9,2,1.3,3.1,1.9c-0.5,0.2-1,0.5-1.5,0.7c-0.5,1.6-1.1,3.1-1.4,4.8c-0.7,3.4-0.9,6.9-1.9,10.1
				c-1.8,5.3-7.4,6.6-12.1,3.4c-1.5-1.1-3.6-1.5-5.5-2.1c-2.4-0.8-4.8-1.5-7.2-1.9c-1.8-0.3-4.2-0.6-5.5,0.2c-2.6,1.7-5.1,4-7,6.5
				c-3,4-5,8.5-11.4,8.7c-3.2,0.1-6.2,2.4-7.2,6.4c5.1,1.3,10.8,0.1,15.2,3.3c-0.1,0.6-0.2,1.1-0.2,1.7c-8.6-0.4-17.4,0.1-25.8-1.4
				c-14.2-2.5-27.1-8.8-39-16.9c-5.1-3.4-9.4-7.6-12-13.2c-0.4-0.9-1.1-1.8-1.9-2.9c-0.6,0.8-1.2,1.2-1.5,1.8
				c-3.8,8.7-11.1,14.2-19.1,18.5c-11,6-22.4,11.8-35.1,13.2c-7.6,0.8-15.4,0.1-23.6,0.1c1.3-3.5,4.6-2.5,7-3
				c2.6-0.6,5.2-0.7,7.9-1.1c-0.4-3.4-3.5-6.6-7.6-6.7c-4.5-0.1-6.6-2.7-8.8-5.8c-2-2.8-4.1-5.7-6.6-8s-5.7-3.1-8.9-0.6
				c-0.9,0.7-2.3,0.8-3.4,0.9c-3.2,0.3-6.2,0.6-9,2.9c-3.6,3-9.2,1.1-10.7-3.3c-1.2-3.5-1.4-7.2-2.2-10.8c-0.3-1.5-0.8-2.9-1.1-4.4
				c-0.8-0.4-1.5-0.8-2.3-1.3c1.2-0.5,2.8-0.8,3.7-1.7c4.9-4.6,9-9.6,11.4-16c2.8-7.7-0.5-13.7-5-19.5c-1.4-1.8-3.3-3.2-4.9-4.8
				c-2.4-2.3-2.3-3,0.4-4c0-2,0.1-3.7,0-5.4c0-0.6-0.4-1.4-0.8-1.9c-3.4-4-4.2-8.8-4.3-13.8c0-1.2,0.9-2.4,1.3-3.7
				c1,0.7,2,1.4,3,2.1c0.2,0.2,0.2,0.6,0.3,1c0.4-0.4,0.8-0.8,1.2-1.1c-1.8-1.7-3.6-3.5-5.5-5.3c4.6,0.3,6.7,2.3,7.7,6.7
				c0.8,3.2,1.4,6.6,3,9.4c1.4,2.6,4,4.6,6,6.8c2.7,3,5.3,6.1,8.2,9.4c0.6-0.3,1.6-0.8,2.8-1.3c-1.4-4.3-3.8-7.3-7.6-9.4
				c-8.5-4.7-9.7-7.4-7.3-16.6c0.7-2.6,0-4.3-2.3-5.6s-4.5-2.8-6.7-4.2c-0.1-0.1-0.1-0.4-0.2-1.3c1.1,0.1,2.2-0.1,2.9,0.3
				c3.7,2.1,8.3,3.1,9.8,7.9c0.2,0.6,1.6,0.7,2.3,1.1c1.3,0.8,2.5,1.7,3.9,2.6c3.5-2.1,7.4-4.1,10.8-6.6c1.3-1,2.3-3.2,2.4-4.9
				c0.3-4,0.3-8.2-0.2-12.1c-0.8-5.3-3.9-8.9-9.4-10.2c-7.9-1.8-15.4-0.6-22.3,3.6c-0.9-3.1,1.8-4.9,11.5-7.4
				c-3-4.6-6.3-8.6-12.3-9.8c0.2-0.5,0.4-1,0.6-1.5c1.9,0.1,3.9,0.3,6.2,0.4c2.5-3.4,5.8-5.6,10.6-3.7c2.8,1.1,4.3,3.5,3.7,6.2
				c-0.3,1.4-2.3,2.8-3.9,3.3c-0.8,0.3-2.3-1-3.5-1.6c1.1-0.5,2.1-1,3.1-1.4c0.4-0.2,0.9-0.2,2.4-0.6c-1.3-1.6-2-3.1-3.2-3.7
				c-2.5-1.3-4.5-0.2-7,3.1c2.2,2.9,4.1,6.1,6.8,8.6c1.2,1.1,3.8,0.9,5.7,1.2c5.3-5.6,7.5-11.8,1.9-17.6c-8.4-8.7-15.6-2.6-22.8,3
				c0.9-5.2,5.4-6.8,9.1-9.2c-1-5.1-5-7.2-9-8.4c2.9-1.9,5.3-4,8.1-5c2.1-0.7,5.1-0.6,7.1,0.3c2.7,1.3,3.2,4.4,2.7,7.2
				c-0.1,0.7-1.2,1.2-1.8,1.8c-0.4-0.7-1.2-1.5-1-2.1c0.5-2.4,0.3-4.8-2.2-5.2c-1.8-0.3-4,0.9-6.3,1.6c2.3,3.5,3.5,6.7,5.8,8.4
				c1.9,1.4,5.4,1.9,7.9,1.3c1.7-0.4,3.4-3.1,4-5.1c1.7-5.6-0.8-11-6.2-14.4c-3.3-2.1-8.2-1.2-12.8,2.2c-1.2,0.9-2.4,1.6-4,1.9
				c2.4-4.3,6-7,11-7.7c6.5-0.9,10.5,3,13.3,7.7c3.6,6,2.5,12.2-2.3,17.4c7,9.5,7.5,16.6,1.4,22.2c13.5,5.9,10.8,17.5,10.6,29
				c8.7-1.4,16.9,0,21.1,8.7c3.7,7.7,3.7,15.9-0.5,23.6c0.2,0.2,0.3,0.3,0.3,0.3c5,0.4,10.1,0.4,13.4,5c4.6,6.4,9,12.8,8.8,21.1
				c-0.1,5.2-2.6,9.2-6.7,12.2c-2.9,2.1-6.2,3.7-9.4,5.6c1.8,2,4,4.2,5.9,6.6c1.3,1.7,2.6,3.5,3.4,5.5c1.2,3.2,3.1,3.3,5.6,1.9
				c8.3-4.6,16.1-10.1,21.1-18.2c2.6-4.1,3.5-9.2,5.6-15c-3.2,1.1-5.3,1.7-7.4,2.5c-1.9,0.8-3.2,0.3-4.1-1.6
				c-1.8-3.9-3.8-7.6-5.1-11.7c-0.3-1,1.5-3.5,2.8-3.9c4.1-1.4,8.4-2.1,12.7-3.1c1.4-0.3,2.8-0.6,4.2-0.9c0.1-0.4,0.3-0.8,0.4-1.1
				c-1.7-0.8-3.4-2.1-5.2-2.3c-11.7-1.4-18.6-15.4-12.1-24.7c1.4-2,2.9-3.5,5.9-1.7c-1.3,1.1-2.6,2-3.4,3.1
				c-3.6,5.3-1.7,13.9,3.9,17.9c5.7,4,11.9,2.9,16.5-3c2.9-3.7,2.6-5.2-1.4-7.9c-2.2,1.9-4.1,4-6.4,5.4c-1.1,0.7-3.1,0.3-4.5-0.1
				c-2.6-0.6-4.4-2.1-4.1-5.1c0.2-1.9,0.6-3.8,3.6-3.8c-0.1,0.8-0.4,1.3-0.3,1.9c0.1,1.4-0.1,3.7,0.5,4c1.5,0.6,3.6,0.8,5,0.2
				c2.9-1.2,3.5-4.7,2-7.6c-0.7-1.4-1.2-2.9-1.1-4.6c2.7,2.8,5.1,6,8.2,8.2c4.4,3.1,5.3,7.1,4.9,11.9c-0.3,3.2-1.5,3.5-4.6,3
				c-2-0.3-4.2,0.9-6.4,1.5c-0.1,0.4-0.1,0.8-0.2,1.3c2.9,1.7,5.8,3.4,9.6,5.6c-2.3,1-3.8,1.9-5.4,2.2c-6.8,1.6-13.6,3-21.1,4.7
				c1.4,3.7,2.6,6.6,3.7,9.5c3.9-1,7.4-2.1,10.9-2.9c3.4-0.8,6.7-2.4,10.2-1.2c-1,3.5-2.2,6.4-2.6,9.4c-1.2,9.7-6.6,17.1-13.3,23.7
				c-6.4,6.4-13.9,11.8-22.6,14.8c-4.6,1.6-5.3,4.4-5.2,8.5c10.3-2.5,19.5-6.8,27.4-13.5c6.6-5.6,13.1-11.3,17.1-19.3
				c1.5-3.1,2.6-0.4,3.8,0.7c1.2-1.9,2.3-3.3,4-0.4c8.3,14,20.4,23.7,35.6,29.8c2.5,1,5.1,1.7,7.6,2.5c0.2,0.1,0.5,0,0.7,0
				c0.7-5.1,0.1-6.2-4.3-8.1c-10.9-4.6-20.2-11.1-27.7-20.3c-4.5-5.5-7.6-11.5-8.7-18.6c-0.4-3-1.6-5.9-2.6-9.6
				c7.2,0,13.8,2.5,21,4.6c1.2-2.8,2.4-5.7,3.9-9.5c-7.5-1.6-14.4-3.1-21.3-4.7c-1.5-0.4-2.9-1.1-5.4-2.1c3.9-2.2,6.8-3.9,10.2-5.9
				c-3.1-1.3-4.8-4.5-8.3-2.3c-0.5,0.3-3-0.9-3-1.5c-0.1-2.6,0.6-5.2,0.6-7.8c-0.2-4.3,3.9-5,6-7.4c2-2.2,3.9-4.5,6.7-6.4
				c-0.7,1.7-1.1,3.6-2.2,5c-2.1,2.6-0.3,4.6,1.2,5.8c1.4,1.1,4.3,1.9,5.7,1.2c1.2-0.6,1.2-3.5,2-6.1c0.7,0.9,1.9,2,2.3,3.2
				c0.8,3.2-1.2,4.9-4,5.8c-4.3,1.4-7.6-0.5-10.2-5.7c-5,2.9-5.3,4.5-1.6,8.8c4.6,5.5,11,6.3,16.4,2.1c5.5-4.3,7.2-13.1,3.3-18
				c-0.8-1-1.9-1.6-3.4-2.8c2.9-1.6,4.5-0.5,6,1.5c6.7,9.1-0.1,23.4-11.7,24.9c-1.9,0.2-3.6,1.4-5.5,2.1c0.1,0.4,0.2,0.8,0.3,1.1
				c5,1.1,10.1,2.2,15.1,3.5c5.8,1.5,6,2.5,3.1,7.8c-1.3,2.4-2.1,5.1-3.1,7.6c-1,2.7-2.6,3.5-5.3,2.2c-1.7-0.8-3.6-1.2-5.9-2
				c1.8,7.9,3.3,15.3,9.4,20.5c5.1,4.3,10.6,8.4,16.1,12.1c3.6,2.4,4.4,1.8,6.3-1.9c1.1-2.2,2.6-4.3,4.1-6.3c1.6-2,3.4-3.6,4.9-5.2
				c-3.5-2.2-7.2-4-10.3-6.5c-6-4.9-7.5-12.1-4.5-19.2c1.3-3,2.8-5.9,4.2-8.7c3.5-6.7,8.9-10.3,17.3-9.2c-4.4-8.2-4.6-16.4-0.9-24.1
				c4.1-8.8,12.3-10.4,21.2-8.9c-0.1-11.2-3-23,10.5-28.9c-6-6.5-5.5-13.9,1.5-22c-6.5-10.7-5-19.3,4.5-24.4
				c5.6-3,14.6,0.2,18.3,7.4c-1.8-0.9-2.9-1.4-3.9-2c-2-1.1-3.8-2.6-5.9-3.3c-5.9-1.9-8.6,0-13.1,6.3c-2.6,3.6-1.3,9.8,2,12.8
				c1.3,1.2,8.6,0.8,9.6-0.6c1.6-2.3,3.1-4.7,4.9-7.4c-1.3-2-3.1-3.6-5.9-2.6c-2.3,0.8-2.6,2.8-2.2,5.1c0.1,0.7-0.5,1.6-0.7,2.4
				c-0.7-0.6-2.2-1.4-2.1-1.9c0.6-2.4,0.9-5.5,2.5-7c1.5-1.3,4.9-1.4,6.9-0.7c2.9,1,5.4,3.2,8.6,5.3
				C241.6,113.8,238.1,116.3,236.7,121.2z M49.6,210.9c9.3-3.5,11.7-10.7,10.3-21C59,183.4,54.6,178,49,177.1
				c-8.1-1.4-20.1,2.8-22.9,8.2c4.8,0,7.6,2.6,9.3,6.8c0.3,0.7,0.9,1.4,1.6,1.8c3.1,1.4,4.2,4,4.6,7.1c0.2,1.1,0.9,2.2,1.7,3.1
				C45.1,206.3,47.2,208.4,49.6,210.9z M201.6,211.3c0.9-1.6,1.3-3.4,2.5-4.4c3-2.5,5.4-4.9,5.8-9.1c0.1-1.4,2.2-2.6,3.5-3.8
				c0.5-0.5,1.4-0.8,1.6-1.3c1.7-4.5,4.5-7.4,10-7.9c-2.6-2.2-5.1-4.2-7.9-5.4c-6-2.6-12.3-4.1-18.5-1.1c-8.1,3.8-8.3,11.4-8.1,18.8
				C190.7,204.4,195.2,208.6,201.6,211.3z M198.3,214c-5-3.6-13.4-4.6-17.1-1.4c-5.7,4.9-9.6,11.2-10.6,18.6c-1,8,5.7,15,14.9,16.8
				c2.3-6.7,3-13.9,7.1-20c0.2-0.2,0.1-0.7,0-1C191.3,221.4,194.1,217.5,198.3,214z M65.6,248.3c2.4-1.2,5.1-2.4,7.6-4
				c6.4-4.3,8.8-10.8,6-17c-1.6-3.7-3.6-7.3-5.9-10.6c-4.8-7-13.8-8.1-20.2-3.2c1.7,3.3,4.7,6.5,4.7,9.7c0.1,3.6,1.8,6.6,2.4,9.9
				C61.1,238.1,63.6,242.9,65.6,248.3z M214.6,206.4c-7.8,13.5-0.3,34.9,7.4,41.7c6-5.4,12.4-3.1,19.4-0.1c-2.5-3.1-4.4-5.6-6.5-8.2
				c-0.6,0.9-1.2,1.7-1.7,2.5c-7.5-5.8-10.2-10.9-7.6-15c1.7,1.8,3.3,3.5,5.1,5.4c0.3-4.1,0.2-7.7,1-11c0.6-2.6,0.3-4.6-1.8-5.9
				C224.9,212.5,219.7,209.5,214.6,206.4z M9.6,247.5c6.7-2.8,13.1-4.4,19.2,0.7c8.4-9.2,14.5-28.5,7.3-41.6
				c-4.9,2.8-9.8,5.5-14.6,8.4c-2.7,1.7-3.6,4-2.5,7.4c0.8,2.4,0.3,5.1,0.4,7.8c0,0.7,0,1.4,0,2.2c0.4,0.2,0.8,0.5,1.2,0.7
				c1.4-2,2.8-4,4.4-6.3c2.1,5.8-3.7,15.9-8,15.5c-0.4-0.7-0.8-1.4-1.3-2.3C13.6,242.4,11.6,245,9.6,247.5z M32.7,261.6
				c2.7,1.3,5.8,2,7.7,3.9c3.1,2.9,5.6,1.9,8.2-0.2c2.6-2.1,5.2-4.4,7.5-6.8c1.8-1.9,3.3-4.1,4.8-6.2c1.1-1.6,0.5-2.7-1.2-3.3
				c-5.9-2.2-11.7-4.6-17.7-6.6c-1.7-0.5-4.4-0.3-5.7,0.7c-2.1,1.7-3.4,4.3-4.8,6.7c-0.4,0.7-0.5,1.8-0.2,2.6
				c0.2,0.4,1.4,0.5,2.2,0.6c1.6,0.1,3.2,0,4.7,0.4c0.9,0.2,1.7,1,2.6,1.6c-0.5,0.7-0.9,1.7-1.6,2.2C37,258.8,34.7,260.3,32.7,261.6
				z M217.5,261.5c-2-1.4-4.5-3-6.8-4.8c-1.6-1.2-1.4-2.6,0.6-3.1c1.7-0.5,3.6-0.4,5.4-0.6c0.9-0.1,2.4-0.2,2.5-0.6
				c0.2-0.9,0-2.1-0.5-2.9c-0.9-1.5-2.4-2.8-3.1-4.4c-1.5-3.5-4.3-3.7-7.2-2.7c-6,2-11.8,4.4-17.6,6.6c-1.7,0.7-2.1,1.7-1.1,3.4
				c3.6,6.3,9.3,10.5,15.2,14.5c0.8,0.5,2.7,0.1,3.8-0.4C211.6,265,214.5,263.2,217.5,261.5z M218.7,206c2-6,6-9.5,11.2-12.1
				c3.1-1.6,5.5-4.1,4.7-8c-0.3-1.5-1.3-2.8-2-4.3c-1.2,1.2-3,2.1-3.4,3.5c-0.7,2.5-2,3.2-4.4,3c-3.6-0.4-5.7,1.6-6.8,4.7
				c-0.7,2-1.4,3.5-3.8,4.3c-1.1,0.3-1.8,2.6-2.1,4.1c-0.1,0.6,1.3,1.6,2.1,2.2C215.5,204.3,216.9,204.9,218.7,206z M31.8,206.1
				c1.8-1.1,3.1-1.6,4.1-2.4c1-0.9,2.7-2.2,2.5-3c-0.4-1.5-1.8-2.7-2.8-4c-0.9-1.1-2.1-2.1-2.7-3.4c-1.2-2.5-2.4-5.2-5.5-5
				c-3.8,0.2-5.8-1-6.7-4.6c-0.2-0.8-1.7-1.4-2.6-2c-0.7,0.9-1.6,1.7-1.9,2.7c-1.2,4-0.3,6.8,3.7,9.1
				C25.1,196.4,29.8,199.7,31.8,206.1z M212.5,238.9c-0.9-3-1.9-6.5-3.1-9.8c-0.3-0.8-1.8-1.7-2.5-1.6c-4.4,0.7-8.7,1.7-13.5,2.6
				c1.2,5,2.2,9.2,3.3,13.5C201.9,242,207,240.5,212.5,238.9z M41.7,226.7c-1.5,5-2.7,8.9-3.7,12.2c5.5,1.7,10.5,3.2,15.9,4.8
				c1-4.3,2.1-8.6,3.2-13.4C51.8,229,46.9,227.9,41.7,226.7z M226.3,263.9c-1.3-5-0.5-8.1,2.2-9.5c2.6-1.3,7.2-0.5,9.1,1.6
				c2.7,3,2.3,5-2.6,12.1c2.1-0.1,5.2,0,5.9-1.2c1.5-2.9,2.9-6.6,2.6-9.8c-0.5-5.8-8.6-10.1-15.3-9.1c-4.4,0.7-7.9,6.9-7,12.6
				C221.7,263.3,223.2,264.5,226.3,263.9z M23.9,264.9c2.1-1,4.4-1.5,4.5-2.3c0.4-3,0.8-6.2-0.1-9c-1-2.9-3.1-5.6-7.1-5.7
				c-10.7-0.4-16.5,7-13,16.8c1.3,3.7,3.2,4.4,7.7,2.7c-3.7-3.1-7.2-6.4-3.1-11.4c1.8-2.1,6.5-2.9,9.1-1.6
				C24.7,255.7,25.5,258.9,23.9,264.9z M74.6,267.5c-1.9-6.8-5.7-11.1-10.5-15c-2,2.3-3,4.1-1.6,7c1.6,3.4,0.7,6.5-2.4,8.9
				c-0.7,0.5-1.2,1.4-1.4,2.2c-0.4,2.6-0.5,5.2-0.8,8.1c2.7,1.8,4.9,1.3,4.6-1.9c-0.5-4.5,3.1-6.7,4-10.1
				C69.2,266.9,71.6,267.2,74.6,267.5z M192.6,278.6c-0.4-2.8-0.6-5.1-1-7.3c-0.2-1-0.5-2.3-1.2-2.9c-3.2-2.6-3.9-5.8-2.3-9.3
				c1.4-2.9,0-4.6-1.9-6.6c-4.6,4.1-8.5,8.2-10.3,15c3-0.3,5.5-0.6,8.1-0.9c1.2,3.6,4.4,6.1,4,10.4
				C187.8,280,189.9,280.4,192.6,278.6z M55.2,226.7c0.9-5.3-1.9-10.4-5.8-10.1c-3.2,0.2-3.8-1.1-3.6-3.7c0.2-3.6-1.6-6-6.1-7.4
				c1.1,6.7,2.1,12.7,3.1,18.8C46.8,225,50.9,225.8,55.2,226.7z M210.7,205.6c-4.9,1.8-5.9,3.1-6.1,7.4c-0.1,1.6,0.4,3.4-2.3,3.6
				c-5.6,0.4-8.3,4.3-7,10c4.2-0.8,8.4-1.6,12.4-2.4C208.7,218.1,209.7,212.1,210.7,205.6z M45.8,271.6c0.7,1,1.6,2.1,2.3,3.3
				c1.4,2.2,3,2.6,5.5,1.5c2.6-1.1,3.2-2.8,2.5-5.1c-0.8-2.4-0.1-3.7,2.1-4.9c3.3-1.8,3.7-3.9,1.9-7.6
				C55.4,262.9,50.8,267.1,45.8,271.6z M190.1,258.4c-1.1,3.6-1,6.3,2,7.8c2.6,1.3,3.2,2.9,2.3,5.5c-0.6,2,0,3.7,2.2,4.6
				s4.1,1.4,5.6-1.1c0.8-1.4,1.8-2.7,2.5-3.6C199.7,267.1,195.1,262.9,190.1,258.4z M68,269.2c-1,2.3-1.9,4.3-2.7,6.3
				c-0.8,2.2-1.5,4.4-2.4,7c2.9,5.3,3.4,5.5,8.4,2.4c-2.8-3.1-5.3-6.4-0.9-10.3c1.3,0.6,2.5,1.3,4.3,2.1c0-2.6,0-4.8,0-6.9
				C72.5,269.6,70.4,269.4,68,269.2z M180,274.5c4.7,4.1,1.5,7.4-0.9,10.6c5.6,2.5,5.6,2.5,8.5-2.8c-1.7-4.5-3.4-8.9-5-13.2
				c-2.6,0.3-4.8,0.5-7.3,0.8c0.1,2.3,0.3,4.4,0.4,7C177.6,275.8,178.8,275.2,180,274.5z M20.1,256.6c-3.6,0.1-5.9,1-5.6,3.8
				c0.2,1.5,2.2,2.7,3.3,4.1c1.4-1.6,3.1-3,4-4.8C22.2,258.9,20.6,257.3,20.1,256.6z M231.8,255c-1.6,2.2-3.5,3.7-3.2,4.4
				c0.8,1.9,2.4,3.3,3.7,5c1.3-1.4,3.5-2.7,3.5-4.1C235.9,258.8,233.7,257.4,231.8,255z M61.6,246.2c-0.8-3.4-1.5-6.5-2.3-9.9
				C55.5,243.6,55.9,245.4,61.6,246.2z M188.9,246.1c5.6-0.6,6.3-4.1,2.3-9.4C190.4,239.8,189.7,242.8,188.9,246.1z"/>
			<path class="st2" d="M186.8,52.2c1.5-1.2,2.9-2.5,4.4-3.5c7.6-5.3,11-15.5,7.7-24.1c-0.6,2.8-1,5.2-1.5,7.5
				c-1.2,6.2-5.9,9.7-10.9,12.8c-1,0.6-3.7,0.1-4.7-0.9c-1.7-1.6-3.2-3.6-2.1-6.7c1.2-3.3,1.9-6.8,2.3-10.3c0.4-2.8-1.2-4.8-4.3-5.3
				c-2.6-0.4-6.7,1.7-7.6,3.9c-3.3,8.1-13.2,14-21.5,13.8c-10.2-0.3-18-5.5-21-14.2c-0.6-1.7-1.2-3.3-2.2-6c-1,2.4-1.8,3.8-2.2,5.3
				c-4.9,16.3-26.9,19.7-38.1,7.8c-2-2.1-2.8-5.3-4.9-7.2c-2-1.7-5-3-7.6-3.1c-3-0.2-4.3,2.6-3.9,5.4c0.4,3.2,0.9,6.6,2.2,9.6
				c1.4,3.3-0.3,5.3-2.1,7.3c-1.9,2.2-3.9,1.2-6.1-0.2C56.1,39.8,52.6,34,52.4,26.2c0-0.4-0.3-0.8-0.8-2
				C48.1,37.4,54.3,45.7,64,52.7c-7.5,0.2-11,4.3-13.8,9.8c4.8,0.7,9.2,2.5,13.1-1.7c0.7-0.8,2.2-0.8,3.4-1.2c0.2,0.3,0.4,0.7,0.5,1
				c-1.8,1.2-4.1,2.1-5.1,3.8c-0.9,1.6-0.4,4-0.5,6.2c2.2-0.8,4-1.3,5.8-1.9c0.4,0.3,0.7,0.6,1.1,0.9c-4.5,2.3-5,5.8-4.1,9.8
				c2.7,0.4,5.4,0.9,8.2,1.3c-0.1,0.5-0.1,0.9-0.2,1.4c-1.3-0.2-2.5-0.3-3.8-0.5C64.5,81,61,83,60.4,86.2C60,88.4,60.5,90,63,90.5
				c1.7,0.3,3.4,0.5,5,0.9c1,0.3,1.9,0.9,2.9,1.4c-1.1,0.5-2.2,1.4-3.2,1.3c-2.6-0.3-5.2-0.9-7.8-1.6c-1.6-0.4-3.1-1.2-4.7-1.9
				c-2,4-0.4,10.1,3.1,13.4c1.1,1.1,2.1,3,1.9,4.3c-0.2,1.3-1.8,3.3-3,3.4c-1.9,0.2-4.4,1.1-6-1.7c-5.4-9-8.3-19-11.6-28.8
				c-1.3-4.1-2.5-8.3-3-12.5c-0.7-5.2-1.6-10.6-0.7-15.6c0.8-4.7,4.7-8.2,9.3-10.3c0.5-0.2,1.6,0,1.6,0.1c0.2,0.8,0.3,1.8,0.1,2.6
				c-1.4,4.8-1.2,9.3,1.2,13.6c3.1-2.9,6.1-5.6,9.3-8.5c-8.3-7.8-12.4-17.5-6.9-28.8C56.6,9.3,67,4.5,81.1,9.3
				c0.9-3.4,1.8-7,5.5-6.6c2.4,0.3,4.5,2.7,7,4.4C95.8,6.5,99,6,102,5c1.6-0.5,3.1-1.7,4.1-2.9c2.2-2.6,2.9-2.7,4.8,0.1
				c0.3,0.4,0.5,0.8,0.7,1.2c2.2,3.7,3.3,3.9,6.1,0.7c2.4-2.7,5.4-4,8.7-3.2c2.3,0.6,4.5,2,6.4,3.5c2.9,2.4,3.8,2.5,5.8-0.8
				c0.4-0.6,0.8-1.2,1.1-1.8c1.4-2.4,3.1-2.4,4.3,0c1.3,2.5,3.3,3.1,5.9,3.5c2.7,0.4,5.2,1.4,6.9,1.9c2.6-1.7,4.7-4.2,7.1-4.5
				c3.7-0.5,4.6,3.2,5.5,6.6c14.9-5.1,25.5,0.6,31.4,13.9c4.7,10.6,0.7,20-7.6,27.4c3.1,2.8,6.1,5.6,9.3,8.5c2.3-4,2.5-8.3,1.4-12.9
				c-0.2-1.1-0.2-2.2-0.2-3.3c1.2,0.3,2.6,0.3,3.6,0.9c7.8,4.5,8.9,11.8,7.7,19.5c-1.9,11.3-4.6,22.4-9.4,33
				c-2,4.6-4.2,9.1-6.2,13.6c-1.3,2.9-4,1.9-6,1.7c-1.2-0.1-2.9-2.1-3-3.4c-0.2-1.4,0.8-3.3,1.9-4.3c3.3-3.2,4.9-8.8,3.3-13.5
				c-2,0.8-3.9,1.8-5.9,2.3c-2.4,0.6-4.9,1.1-7.4,1.3c-0.8,0.1-1.6-0.9-2.4-1.3c0.8-0.5,1.6-1.1,2.5-1.4c1.6-0.4,3.4-0.3,5-0.9
				c1.2-0.4,2.8-1.6,2.9-2.5c0-1.6-0.6-3.9-1.8-4.6c-1.9-1.2-4.4-1.4-6.7-1.7c-1.1-0.2-2.2,0.3-3.3,0.6c-0.1-0.5-0.2-1-0.3-1.5
				c2.7-0.5,5.4-0.9,8.1-1.4c0.3-5.3,0.3-5.3-3.1-10.5c1.7,0.5,3.4,1,5.5,1.7c0-2,0.7-4.4-0.2-6s-3.3-2.5-5-3.7
				c0.1-0.3,0.2-0.7,0.4-1.1c1.2,0.3,2.8,0.3,3.5,1c3.9,4.2,8.3,2.3,13.1,1.7C197.5,57,194,52.9,186.8,52.2z M121.9,16.9
				c-2.7,0.9-6.2,1.1-7.3,2.8c-2.1,3.2-4.5,4.2-7.5,3.1c-1.6-0.6-2.6-3.2-4.3-5.5c-6.4,2.3-14.1,4.3-18.4,11.7
				c6.8,8.2,16.9,10.5,26.6,6.7C116.5,33.5,123.1,23.1,121.9,16.9z M128.6,17.3c-1.4,5.4,5.3,16.3,11.1,18.4
				c9.9,3.6,20.6,1.1,26.3-7c-4.3-7.5-12.1-9.2-18.5-11.6c-1.5,2.4-2.3,5-3.6,5.4c-2,0.5-5.7,0.1-6.5-1.2
				C135.3,17.6,131.9,18,128.6,17.3z M115.5,15c3.1-0.8,6.4-2.4,9.8-2.4c3.4,0,6.9,1.6,9.8,2.4c2.1-1.8,4.1-3.5,6.3-5.4
				c-4.7-1.1-9.4-2.1-13.1-5.8c-1.9-1.9-5.4-1.5-7.3,0.7c-2.5,2.9-5.6,3.9-9.1,4.4C111,9,110,9.5,109.4,9.8
				C111.5,11.6,113.4,13.2,115.5,15z M108.5,15.9c-1.2,1.5-2.2,2.6-2.9,3.8c-0.1,0.2,1.5,1.9,2.1,1.8c1.8-0.3,4.1-0.6,4.9-1.8
				c2.1-3.2,0.1-6.8-3.8-7.4c-5-0.7-9.6,0.6-13.8,3.4c-1.2,0.8-2.7,1.3-4.1,1.5c-4.6,0.6-9.1,5.8-8,11.2c2.5-5.6,7.1-7,11.3-9.4
				C99,16.3,103.6,15.8,108.5,15.9z M141.8,15.9c10.6-0.6,18.9,3.9,26.2,11.6c0.3-4.8-4-9.6-8.4-10.2c-1.6-0.2-3.2-0.8-4.5-1.7
				c-4.1-2.7-8.5-3.9-13.4-3.2c-3.9,0.5-6,4.1-3.9,7.3c0.8,1.2,3.2,1.7,4.9,1.9c0.7,0.1,2.4-1.7,2.2-2
				C144.3,18.3,143.2,17.4,141.8,15.9z M202.5,67.6c0.2-1.5-0.3-3.2-3.5-2.8c-1.3,0.2-2.6,0.3-4,0.5c-2.7,0.3-4,1.6-3.9,4.5
				c0,1.6-0.9,3.1-1.1,4.7c-0.3,1.7-0.9,3.7-0.4,5.2c1,2.8,2.8,5.3,4.4,8.3c1.5-1.2,3.1-2.4,5.4-4.3c-7.8-2.2-6.2-7.5-4.7-11.7
				C195.4,70,199.4,69.2,202.5,67.6z M48.1,69.2c6.5-1.4,8,2.4,8.9,7.3c0.8,4.3-3,5.2-5.3,7.9c1.7,1.3,3.4,2.6,4.8,3.6
				c1.6-2.9,3.1-5.3,4.1-7.8c0.6-1.5,0.6-3.4,0.4-5c-0.3-1.9-1.6-3.7-1.6-5.6c-0.1-2.8-1.3-3.9-3.8-4.2c-1.3-0.2-2.7-0.3-4-0.5
				C48.5,64.4,47.8,65.9,48.1,69.2z"/>
			<path class="st2" d="M75.9,149c-2.8,1.3-5.5,2.5-8.1,4c-2.7,1.5-4.5,1.3-6.5-1.4c-4.3-5.9-4.4-5.8,1.9-9.7c1.6-1,3.3-2.1,4.9-3.1
				s3.4-1.9,5.3-2.9c-2.5-4.1-3.3-8.3-0.6-12.3c-2.7-2.5-5.4-4.7-7.7-7.3c-3.7-4.4-2.3-9.6,3.2-11.6c2.4-0.9,3.7-2.1,4.9-4.3
				c1.4-2.6,4.2-4,7.6-3.9c-2.5,2.2-4.7,4.3-7.3,6.7c2.2,1.2,3.6,2,5.5,3.1c2.9-3.5,5.8-7,9-10.8c0.1,1.2,0.2,2.2,0.2,3.2
				c-0.2,2.5,0.6,4.2,3.1,5.5c1.4,0.8,2.1,2.9,3.1,4.4c0.8,1.2,1.4,2.8,2.5,3.5c4,2.4,4.1,2.3,4.9,7.1c0.9,0.1,2,0.1,3,0.4
				c0.9,0.3,1.6,1,2.4,1.5c-0.9,0.5-1.8,1.4-2.6,1.4c-2.3-0.2-4.5-0.9-7.3-1.5c-2.4,1.3-5.8,3-9,4.8c-0.7,0.4-1.5,1.3-1.6,2
				c-0.3,3.1-0.4,6.1-0.5,9.1c4.9,0.7,7.7-0.9,9.4-4.9c1.4-3.3,3.9-5.5,7.7-5.6c0.7,0,1.5,0.8,2.2,1.1c-0.6,0.5-1.2,1.3-1.8,1.3
				c-3,0.4-4.8,1.9-5.9,5.4c7.1-1.3,7.9,5.6,12.6,8.1c-2.8,2-4.1,0.3-5.2-1c-5.2-5.8-5.5-5.9-12.5-2.8c-1.5,0.7-3.2,1.1-5.2,1.8
				c1,1.7,1.9,3.3,2.8,4.8c0.8-0.2,1.1-0.3,1.3-0.4c1.4-1.1,2.9-2.3,4.3-3.5c0.9,1.6,1.7,3.2,2.6,4.7c0.2,0.4,0.6,0.7,1,0.8
				c3.1,0.7,1.6,2.5,1,4.1c-0.7,1.9-1.5,3.8-2.1,5.8c-0.9,2.8-2.3,5.6-2.5,8.4c-0.2,3.6,0.6,7.4,0.7,11c0,1.3-0.7,2.7-1.1,4.1
				c-1.5-0.6-3.6-0.8-4.5-1.9c-1.8-2.2-3-4.9-4.4-7.4c-2.7-5.3-5.4-10.7-8-16C77.8,153.2,77,151.4,75.9,149z M84.2,113.6
				c-0.4,1.7-0.9,3.1-1.1,4.6c-0.2,1.4-0.4,3.9,0.1,4.2c1.5,0.6,3.7,0.9,5.1,0.2c3.4-1.6,6.6-3.7,10.1-5.8c-2.9-1.9-5.3-3.6-7.7-5.2
				C88.7,112.3,86.5,112.9,84.2,113.6z M84,126.6c-2.6-0.6-4.7-1.1-6.9-1.7c-2.1-0.6-2.8,0.5-3.2,2.3c-1,5.2,2.1,8.2,8.9,8.4
				C83.2,132.5,83.7,129.3,84,126.6z M67,115.7c3.2,2.2,6,4.1,8.8,6.1c3.2-4.4,3.2-5.8,0.1-8.5C73.7,111.3,71.2,111.9,67,115.7z
				 M85.5,103.3c-2,1.9-5.6,2.6-4.1,5.9c1.1,2.6,4.9,2.1,10.2-1C89.5,106.6,87.7,105.1,85.5,103.3z"/>
			<path class="st2" d="M169.4,96.2c4.4,0.3,6.6,2.2,8.5,4.9c0.9,1.3,2.4,2.6,3.8,3.2c5.8,2.4,7.5,7.4,3.6,12.1
				c-2.1,2.5-4.8,4.6-7.5,7.1c2.1,3.8,2.3,7.9-0.9,12.1c2.7,1.6,5.2,3.1,7.7,4.6c2.1,1.3,4.1,2.6,6.1,3.9c1.9,1.2,2.4,2.6,0.8,4.4
				c-0.6,0.7-1.2,1.5-1.8,2.3c-3.1,4-3.5,4-8,1.6c-2.3-1.2-4.8-2.2-7.2-3.3c-4.5,9.2-8.8,18.1-13.3,26.9c-1.2,2.3-2.4,5.7-6,4.4
				c-3.4-1.3-1.3-4.4-1.1-6.6c0.5-5,1.1-9.7-1.6-14.6c-1.5-2.7-0.6-6.5-3.1-9.1c-0.4-0.4-0.3-1.9-0.1-2c3-0.8,2.6-3.8,4-5.6
				c0.4-0.5,2.3-0.5,3.2,0c1.1,0.6,1.7,1.9,3.1,3.5c1.3-2,2.3-3.6,3.3-5.2c-2.8-1.2-5.2-2.2-7.6-3.2c-4-1.7-6.4-0.9-9.1,2.6
				c-1.4,1.8-2.6,4.1-6.6,2.7c4.9-2.8,5.8-9.5,12.8-8.4c-0.7-3.4-2.5-4.9-5.5-5.4c-0.8-0.1-1.4-1-2.1-1.5c0.8-0.4,1.6-1.1,2.3-1
				c3.9,0.1,6.2,2.4,7.7,5.7c1.6,3.7,4.2,5.3,9.4,4.9c-0.1-3.2-0.2-6.5-0.5-9.8c-0.1-0.6-0.9-1.2-1.6-1.6c-3.1-1.8-6.4-3.4-8.8-4.7
				c-3.1,0.5-5.6,1.1-8.2,1.4c-0.5,0.1-1.2-0.9-1.8-1.4c0.6-0.5,1.2-1.4,1.8-1.4c2.8,0.2,4.2-0.7,4.3-3.7c0-1,1.6-1.9,2.4-2.9
				c0.1-0.2,0.4-0.3,0.6-0.3c4.6-0.7,2.6-6.1,5.3-7.6c3.4-1.9,5.3-4,4.4-7.9c-0.1-0.4,0.2-0.9,1.2-1.6c0.9,1.9,1.5,4.1,2.8,5.7
				c1.5,1.8,3.7,3,5.9,4.7c1-0.5,2.5-1.2,4.9-2.4C174.5,100.9,172.3,98.9,169.4,96.2z M151.9,117c3.9,2.2,7.3,4.5,11.1,6
				s5.6-0.3,4.6-4.2c-0.4-1.7-0.9-3.4-1.3-5.2c-2.2-0.7-4.5-1.3-6.5-1.9C157.3,113.4,154.8,115,151.9,117z M167.7,135.7
				c0.8-0.1,1.6-0.1,2.4-0.1c4.8-0.3,7.9-4.7,6.3-9c-0.3-0.8-1.7-1.7-2.5-1.6c-2.4,0.3-4.8,1-7.3,1.5
				C166.8,129.3,167.3,132.4,167.7,135.7z M183.5,115.7c-4.3-3.8-6.8-4.3-9-2.2c-3.1,2.8-3.1,4.2,0.3,8.3
				C177.6,119.8,180.4,117.8,183.5,115.7z M158.3,108.7c3,1,4.9,2,6.9,2.1c1.4,0,2.9-1.2,4.4-1.9c-0.6-1.2-1.1-2.5-2-3.6
				c-0.6-0.8-1.7-1.2-2.6-1.9C162.9,105,161.1,106.5,158.3,108.7z"/>
			<path class="st2" d="M95.6,92.7c5.5,4.6,10.7,9,15.9,13.4c0.4,0.3,0.6,0.8,0.8,1.2c0.8,2,2.9,4.2,0.2,6.1
				c-2.4,1.8-4.2-0.1-5.9-1.7c-1.2-1.1-2.6-2-4.1-2.8c-2.2-1.3-4.6-2.2-4.5-5.4c0-0.7-0.9-1.5-1.6-2.1
				C93.7,98.7,93.4,96.9,95.6,92.7z"/>
			<path class="st2" d="M155.5,92.3c0.4,2.3,1.4,4.4,0.8,5.1c-3.3,3.7-3.2,9.9-9.1,11.8c-1.6,0.5-2.9,2.1-4.1,3.3
				c-1.6,1.6-3.5,2.4-5.1,0.8c-0.8-0.9-1-3.3-0.3-4.3c1.6-2.4,3.7-4.6,5.9-6.6C147.1,99,150.9,96.1,155.5,92.3z"/>
			<path class="st2" d="M128.7,176.9c1.6,1.6,3.3,3.2,4.7,5c0.3,0.4-0.2,1.9-0.8,2.3c-1.2,0.9-2.6,1.6-4.1,2.1
				c-0.2,0.1-1.3-1.6-1.4-2.5c-0.1-2.1,0.2-4.2,0.3-6.3C127.8,177.3,128.3,177.1,128.7,176.9z"/>
			<path class="st2" d="M122.9,177.4c0.2,1.7,0.6,3.4,0.5,5.1c-0.1,1.3-0.8,2.5-1.3,3.8c-1.6-0.9-3.4-1.6-4.8-2.8
				c-0.3-0.3,0.4-2.2,1-3.1c1-1.3,2.3-2.4,3.5-3.6C122.3,177,122.6,177.2,122.9,177.4z"/>
			<path class="st2" d="M247.9,222.6c0.1,1.7,0.3,2.3,0.2,3c-0.2,3.5-0.4,7-0.8,10.5c-0.1,0.9-0.9,1.6-1.4,2.5
				c-0.6-0.7-1.5-1.3-1.6-2C243.3,231.8,244.3,227.4,247.9,222.6z"/>
			<path class="st2" d="M2.8,222.9c3.3,4.6,4.4,8.9,3.4,13.7c-0.2,0.8-1.1,1.3-1.7,2c-0.5-0.7-1.3-1.4-1.4-2.1
				c-0.4-3.8-0.7-7.7-0.9-11.6C2.3,224.4,2.5,224,2.8,222.9z"/>
		</g>
	</g>
</g>
<g id="Layer_5" class="st0">
	<g class="st1">
		<g>
			<path class="st3" d="M68.9,126.3c-1.1-2.2-1.9-3.6-2.5-4.8c0.3-1.7,0.4-3.3,0.9-4.9c0.2-0.7,1-1.4,1.7-1.7
				c5.7-3.1,11.5-6.2,16.7-8.9c-0.1-1.4-0.6-2.8-0.2-3.8c2.3-6.7,7.5-11.3,12.7-15.8c2.9-2.5,6-4.9,9.1-7.1c3.3-2.4,4.8-5.2,4.5-9.4
				c-0.5-7,1.3-13.4,6.9-18.2c1.2-1,3.5-1.7,5.1-1.4c4,0.7,8.4,1.5,10,6c0.4,1,0.4,2.9-0.3,3.5c-2.9,2.4-2,5-1,7.8
				c4.9-0.5,4.9-7.7,10.5-7.1c-2.6,3.2-5.2,6.2-7.7,9.3c-2.3,2.7-3.1,5.6-2.2,9.5c0.8-1,1.2-1.8,1.8-2.4c2.8-2.7,5.5-5.6,8.6-8
				c2-1.6,4.1-2.2,6.3,0.8c1.2,1.6,4.1,2.4,6.4,2.9c5,1.1,5.7,1.7,5.9,6.9c0.2,6.8,6.6,13.4,13.4,13.7c5.4,0.2,8.7-1.9,10.6-6.8
				c0.3-0.9,0.7-1.8,1.2-2.6c1.3-2.1,2.5-1.9,3.7,0.1c0.4,0.6,0.7,1.3,1,1.9c3.3,7.8,11.9,10,18.6,4.7c3.6-2.8,5.8-6.2,5.7-11
				c-0.1-4.3,1-5.3,5.4-6c3.1-0.5,6.1-1.2,7.9-4.3c0.3-0.5,2.4-0.8,3.1-0.3c3.4,2.5,6.8,5.3,10,8.1c0.9,0.7,1.3,1.9,2,3.1
				c1.6-4,0.6-7.2-2.7-10.3c-1.2-1.1-1.9-2.8-2.9-4.1c-1.2-1.4-2.5-2.7-4-4.2c5.6-0.5,5.7,6.5,10.5,7.1c0.9-2.8,1.9-5.3-0.9-7.8
				c-1.7-1.5-0.8-5.3,2.1-6.8c2.9-1.6,6.3-2.4,9.6-3.2c0.8-0.2,2.1,0.9,3,1.6c5.4,4.7,7.4,11,7,17.8c-0.4,5.2,2.1,8.1,5.8,11
				c4.9,4,9.7,8.2,14.1,12.8c2.4,2.5,4.1,5.9,5.8,9c0.5,1,0.1,2.4,0.1,4.1c4.8,2.6,10.5,5.5,16,8.7c0.8,0.5,1.2,1.8,1.7,2.8
				c0.5,1.1,1,2.3,1.4,3.5c-0.8,1.4-1.6,2.9-2.8,5.1c0.4-0.1-0.2,0.2-0.8,0.2c-5.3-0.1-6.9,3.3-7.8,7.6c-0.2,1.1-1.6,2.5-2.7,2.7
				c-10.9,2.4-11.6,6.8-11.3,14.1c0.1,1.9,1.5,3.9,2.6,5.6c1,1.6,1.2,2.7-0.4,4c-7.5,6.2-7.6,12.4-0.4,18.8c0.4,0.4,0.7,0.9,1.3,1.6
				c-1.1,0.5-2,0.9-2.8,1.1c-5.3,1.7-9.1,5-10.7,10.4c-0.8,2.8-1.9,5.2-4.5,7c-3.2,2.3-4.6,5.8-4.6,9.8c0,3.5-1,5.5-5.2,5.6
				c-4.4,0.1-8.8,3.9-8.9,8.6c-0.1,4.6-2.3,7.1-5.7,8.9c-4.4,2.4-5.6,6.2-4.8,10.6c0.8,4.4-0.3,7.4-3.8,10.6
				c-7.4,6.8-8.4,15.7-4,24.9c0.5,1.1,0.3,2.8-0.2,4c-2.5,5.7-1.7,10.8,1.8,15.9c0.7,1,0.8,2.6,0.6,3.9c-1.8,9.4,0.8,17.4,7.1,24.8
				c3.7-3.1,7.1-6.1,10.7-8.9c1.2-1,2.7-2.2,4-2.2c3.6,0.2,5.1-1.8,7.1-4.3c3.9-4.9,7.4-10.5,14.6-11.7c0.7-0.1,1.3-1.9,1.5-3
				c0.7-3.5,0.8-7.2,2-10.4c1.3-3.5,4-6,8.4-5.5c0.8,0.1,1.9-0.7,2.6-1.3c2.1-1.7,3.9-3.9,6.2-5.4c4-2.5,7.6-1.4,9.9,2.3
				c-2,5.4-2.9,10.5-1.4,16c0.2,0.8,0.5,1.6,0.5,2.4c-0.2,10.4-0.5,20.8-0.8,31.2c0,0.7-0.3,1.4-0.5,2.2c-13.8,0-27.6,0-41.3,0
				c-7.5,0-15.1-0.5-22.6,0.1c-10.7,0.9-20-2.7-29.3-7c-11.1-5.2-19.9-12.8-25.9-23.4c-0.2-0.3-0.5-0.5-1-0.8
				c-4.6,8-10.4,14.9-18.4,19.7c-10.2,6.2-20.9,11-33.4,10.8c-21.5-0.3-43.1-0.1-64.6-0.1c-1.3,0-2.6,0-4.6,0c0-9.9-0.1-19.6,0-29.2
				c0.1-6.5,0.9-13,0.6-19.4c-0.1-2.3-1.3-4.5,1.4-5.9c2.8-1.4,5.6-1.3,8.3,0.5c0.7,0.5,1.5,0.8,2.1,1.4c2.7,2.6,5.1,5.1,9.5,5.9
				c3.7,0.6,5.3,5,5.9,8.8c0.5,2.9,0.5,5.9,0.8,9c8.6,1,12.5,7.7,17.1,13.5c0.8,1,1.9,2.4,2.8,2.3c4-0.4,6.6,2,9.3,4.3
				c2.7,2.3,5.5,4.7,8.4,7.2c6.2-7,8.9-14.9,7.3-24c-0.4-2.2-0.1-3.8,1.2-5.9c2.8-4.4,3.4-9.4,1.3-14.4c-0.5-1.3-1-3.1-0.5-4.2
				c4.5-9.5,3.3-18.6-4.3-25.4c-3.2-2.9-4.1-5.6-3.4-9.7c1.1-6.5-0.9-9.7-6.7-13.1c-1.2-0.7-2.3-2.4-2.6-3.8
				c-1-6.4-3.4-9.4-9.9-11.2c-3.1-0.8-4.8-2.2-4.7-5.7c0.1-4.3-2.1-7.7-5.6-10.4c-1.2-1-2.4-2.5-2.8-3.9
				c-1.7-6.8-5.8-11.1-12.7-12.9c-0.4-0.1-0.8-0.5-1.3-0.9c1.6-1.9,3.3-3.6,4.6-5.5c3.4-5.3,2.1-11.6-3.1-15.1
				c-2.3-1.6-2.2-2.9-0.6-5c5.8-7.6,1.3-17.7-8.3-19.2c-1.2-0.2-3.1-1.2-3.3-2C76.8,129.4,74.4,125.8,68.9,126.3z M146.2,227.3
				c2.2,5.2,4.5,10,6.3,14.9c2.8,7.5,5.2,15.1,7.8,22.8c0.6,1.7,1.4,2.2,3.2,1.9c5-1,9.9-2,14.9-2.7c1.9-0.3,3.9,0.2,5.3,0.4
				c-1.4,2.9-2.6,5-3.4,7.1c-1,2.8-1.3,5.9-2.6,8.5c-6.2,13.4-17.6,21.6-30,28.9c-0.9,0.5-2.3,1-2.6,1.8c-1.8,5.1-3.4,10.3-5.1,15.5
				c0.6,0,1.5,0.2,2.3,0c17.9-4.1,32.9-12.2,42.3-28.5c0.9-1.5,1.5-2.2,3.5-2.2s2.5,0.8,3.6,2.1c4,5.1,7.6,10.7,12.6,14.6
				c6.2,4.9,13.4,8.5,20.5,12.1c3.5,1.7,7.7,2.1,11.5,3.1c-1.8-5.6-3.3-10.5-5-15.3c-0.3-0.9-1.3-1.6-2.1-2.2
				c-5-3.4-10.2-6.5-15-10.1c-9.2-7.1-16.2-15.8-18.2-27.6c-0.4-2.5-2.1-4.9-3.4-7.9c1.5-0.1,3.5-0.6,5.3-0.3
				c4.8,0.9,9.5,2,14.2,3.2c2.5,0.7,3.4-0.2,4.2-2.4c4.3-12.6,8.8-25.2,13.2-37.8c-5-2.6-10.6-5.6-16.2-8.6c-1-0.3-2.3,0.3-3.7,0.8
				c-5.4,1.6-10.6,1.2-15.4-1.8c-3.8-2.4-4.7-8.4-1.9-10.8c3.7-3.2,7.3-6.6,10.9-10c0.7-0.7,1.2-1.6,1.3-1.7
				c-3.5-2.1-6.7-3.8-9.7-5.9c-2-1.3-3-7.8-1.8-9.8c0.3-0.5,0.8-0.9,1.3-1.2c5.4-2.5,8.4-6.9,10.4-12.2c0.5-1.3,0.4-2.9,0.5-4.2
				c-2.2,0.3-4,0.4-5.7,0.8c-1.5,0.4-3.2,0.7-4.2,1.7c-4.6,4.1-8.2,4.1-12.7-0.2c-0.8-0.7-1.9-1.4-2.9-1.6c-2.2-0.3-4.4-0.3-6.6-0.4
				c-0.6,5.9,4.5,14.2,10,16c0.5,0.2,1.2,0.5,1.5,0.9c0.9,1.2-0.3,8.9-1.6,9.7c-3.3,2.2-6.8,4.2-10.8,6.6c3.6,3.5,7.6,7.3,11.4,11.2
				c1,1,1.9,2.5,1.9,3.8c0.2,5.6-3.4,9.3-10.2,9.7c-4.2,0.2-8.5-0.8-12.7-1.3c-2.4,1.4-5,3-7.7,4.4
				C151.9,224.6,148.9,226,146.2,227.3z M160.7,217.2c-4.5-5.5-4.8-16.9,0.4-21.6c3.7-3.2,7.5-6.1,9.8-10.5c0.1-0.2,0.4-0.3,0.6-0.5
				c0.5-1,1.1-2,1.5-3.1c0.6-1.9,1-3.9,1.7-6.4c-0.8-1.6-2.2-3.9-3.2-6.3c-3-6.7-1.1-11.4,5.4-14.8c0.9-0.5,1.7-1.8,1.8-2.8
				c0.5-3.6-0.2-6.9-3.4-9.3c-2.9-2.2-6-4.2-8.4-6.8c-4.7-5.2-10.6-3.9-16.1-2.8c-6.9,1.4-8.6,0.8-9-6.1c0-0.2-0.3-0.3-0.9-0.9
				c-1,1.2-1.8,2.4-2.8,3.5c-0.6,0.7-1.1,1.8-1.9,2c-7.6,1.8-9.3,7.2-9.3,13.9c0,1-0.6,2.4-1.4,2.9c-5.1,3-10.3,5.8-15.4,8.7
				c-0.9,0.5-1.6,1.2-2.4,1.8c2.7,4.6,4.9,9,7.6,13.1c3.3,5,7,9.7,10.7,14.5c0.6,0.8,2.3,1.7,2.9,1.4c4.7-2.2,9.2-4.7,13.8-7.1
				c1.7-0.9,3.4-2,5.1-3.1c0.4,0.6,0.7,1.1,1,1.7c-5.4,3.4-10.9,6.8-16.2,10.1c6.4,10.8,12.9,21.8,19.4,32.8
				C155.1,220,157.9,218.6,160.7,217.2z M236,126c-0.1,0.7-0.2,1.4-0.2,2.2c-0.2,4-2.9,5.8-6.9,4.9c-3.9-0.9-7.8-1.3-11.8-1.7
				c-0.7-0.1-1.6,0.4-2.2,0.9c-4.1,3.2-8.1,6.5-12.3,9.6c-3.4,2.5-4,5.9-3.4,9.6c0.2,1,1.2,2.4,2.2,2.8c6.4,2.7,7.1,7.4,5,12.6
				c-1.3,3.2-3,6.2-4.1,8.5c0.7,2.4,1,4.4,1.8,6c1.8,3.6,3.9,7.1,6,10.6c0.2,0.3,0.9,0.3,1.4,0.4c3.4,1.1,5.6,3.5,6.6,6.7
				c2,6.3,3.1,12.6-2.7,18c3.1,1.5,5.9,2.9,9.2,4.6c6.6-11.1,13.3-22.2,20.1-33.6c-6.3-2-11.6-5.6-16.5-10.2c0.7-0.4,1-0.6,1.1-0.6
				c0.6,0.1,1.1,0.3,1.7,0.6c5,2.7,10.1,5.1,14.9,8.2c2.6,1.7,4.3,1.2,5.7-0.9c6.1-8.8,12.2-17.7,18.2-26.6
				c-1.4-1.1-1.9-1.6-2.5-1.9c-4.9-2.8-9.8-5.6-14.9-8.1c-2.2-1.1-2.5-2.7-2.8-4.9c-0.4-3.1-0.8-6.8-2.7-9c-3-3.3-7.6-5.1-10.3-8.8
				C236.6,125.8,236.4,125.9,236,126z M138.6,125c-0.4-0.3-0.9-0.7-1.3-1c-0.5-2.2-0.9-4.5-1.5-6.7c-0.3-1-0.7-2.6-1.4-2.8
				c-3.7-0.9-5.1-2.8-3.9-6.5c0.2-0.7-0.1-1.6-0.2-2.4c-0.3-2.6-0.7-5.1-0.9-7.7c-0.1-0.8,0.3-1.9-0.1-2.4
				c-3.3-3.8-0.4-7.1,0.3-10.7c0.7-3.7,0.1-7.6,0-11.4c0-0.5-1-1-1.6-1.3c-3.6-1.3-9.7,0.8-11.8,3.8c-1.2,1.6-2.5,3.2-4,4.5
				c-3.2,2.8-6.8,5.1-9.8,8.1C99,91.8,95.9,95.3,93,99c-0.7,0.9-0.8,2.8-0.4,3.9c2.7,7.9,5.7,15.7,8.5,23.5c3.2,9,6.2,18,9.6,27.8
				c3.8-2.4,7.3-4.8,10.9-6.9c2.2-1.3,3.1-2.9,3-5.5c-0.1-5.2,1.8-9.5,6.9-12.1C134.1,128.4,136.3,126.6,138.6,125z M239.6,124.8
				c1.3,1.3,2.4,3,4.1,4c5.2,3.1,8.8,7,8.8,13.4c0,1.1,0,2.8,0.7,3.3c4.2,3,8.5,5.7,13.2,8.8c2.8-7.6,5.2-14.3,7.6-21.1
				c3.5-9.8,7-19.6,10.4-29.4c0.5-1.4,0.3-3.5-0.5-4.6c-2.9-3.8-6-7.5-9.4-10.8c-3.8-3.7-8.9-6.3-12-10.4c-3.1-4.2-6.6-5.7-11.4-5.3
				c-1,0.1-2.6,0.8-2.7,1.3c-0.3,3.8-1,7.7-0.3,11.4c0.7,3.7,3.9,7.1,0.3,11c-0.3,0.3-0.1,1.1-0.1,1.7c-0.2,4.7-0.4,9.4-0.8,14.1
				c0,0.6-0.6,1.6-1.1,1.7c-4.7,0.7-5,3.8-4.9,7.5C241.5,122.4,240.4,123.4,239.6,124.8z M173.9,97.2c-3.3,14.9-0.7,26.8,13.1,35.8
				c0.9,0.6,2.9,0.5,3.8-0.1c6.6-4.3,11.4-9.8,13.4-17.6c1.6-6.2,0.9-12.3-0.4-18.3c-4.3,2.6-8.2,5-11.7,7.2
				c-0.9,3.6-1.7,7.2-2.5,10.7c-0.5,0-1-0.1-1.5-0.1c-0.6-2.9-1.1-5.8-1.9-8.6c-0.2-1-0.7-2.2-1.5-2.7
				C181.3,101.3,177.7,99.4,173.9,97.2z M227.8,295.9c0.9-5.3,1.6-10,2.3-14.7c0.1-0.5-0.2-1.1-0.4-1.7c-4.7-11.5-0.9-22.4,6.7-28.6
				c0.9-0.7,1.6-2.2,1.5-3.2c-0.8-5.7-1.2-11.2,3.6-16.1c-3-1.1-5.3-1.9-7.8-2.8c-3.3,8.4-6.8,16.4-9.7,24.7
				c-3,8.7-5.4,17.6-7.9,26.5c-0.4,1.4-0.4,3.5,0.4,4.5C220.2,288.4,224.2,292.2,227.8,295.9z M147.8,295.6
				c3.6-3.5,6.8-6.7,10.2-9.8c2.3-2.1,2.5-4.5,2-7.2c-3.4-17.2-11.3-32.9-17.2-49.3c-0.1-0.2-0.4-0.2-0.8-0.5c-2,0.9-4,1.7-6.1,2.6
				c0.4,0.1,0.8,0.2,1.2,0.3c0.4,4.6,1.2,9.2,1.2,13.8c0,2.2,0.2,3.6,2.1,5.2c7.5,6.3,9.6,14.7,7.7,23.7c-0.8,3.9-1.6,7.2-0.4,11.2
				C148.5,288.4,147.8,291.6,147.8,295.6z M169.4,107.6c-1.3,1-2.4,2.2-3.8,2.8c-0.7,0.3-2.5,0-2.8-0.5c-1.5-3.3,0.3-10,3.1-12.6
				c1-0.9,2.1-1.8,3.3-2.8c-2.5-2-4.7-3.8-6.8-5.6c-1.2,2.1-2.1,4.2-3.4,5.9c-6.9,9.1-8.5,19.5-8.7,30.4c-0.1,2.6,0.9,3.8,3.6,3.7
				c6.9-0.2,13.2-2.3,18.8-5.3C171.6,118,170.5,113,169.4,107.6z M208.2,107.5c-1.1,5.5-2.1,10.7-3.2,16.1c5.8,3,12,5.2,18.9,5.3
				c2.2,0,3.4-0.6,3.4-3.1c0.1-10.6-1.5-20.7-8.1-29.6c-1.5-2-2.6-4.4-3.8-6.6c-2.1,1.6-4.3,3.3-6.9,5.2c6,3,7.2,8.1,6.7,13.9
				c-0.2,2.3-1.3,2.8-3.1,1.7C210.7,109.6,209.4,108.5,208.2,107.5z M255.9,212.6c-5.1-2.5-9.7-4.7-14.3-6.8
				c-0.7-0.3-2.3,0.1-2.7,0.7c-3.5,5.6-6.8,11.4-10.4,17.6c4.9,2,8.9,4.2,13.2,5.1c1.7,0.4,5.5-1.7,5.7-3.1
				C248.4,220.6,251.1,216.5,255.9,212.6z M121,212.6c4.9,3.8,7.8,7.9,8.2,13.4c0.1,2,3.9,4.2,5.8,3.5c4.2-1.6,8.4-3.5,13.3-5.6
				c-3.6-6.2-6.9-11.8-10.2-17.2c-0.4-0.6-2-1.1-2.6-0.9C130.7,207.9,126.1,210.2,121,212.6z M147.8,96.9c-1.8-0.5-4.4-0.9-6.6-1.9
				c-2-0.8-3.2-0.3-4.4,1.2c-3.4,4.1-3.5,9-3.9,13.9c-0.1,0.5,0.6,1.4,1.1,1.6c3.8,1.2,7.6,2.3,11.4,3.3c0.8,0.2,2.4-0.4,2.6-1
				c1.1-3.5,1.8-7,2.6-10.3c-2.2-0.2-4.1-0.3-6-0.5C145.6,101.1,146.6,99.1,147.8,96.9z M227.1,104.4c0.7,2.7,1.4,5.5,2.1,8.4
				c0.5,2.2,1.8,3.2,3.9,2.7c3.6-0.9,7.2-2.1,10.7-3.2c0.5-0.2,1.2-1.1,1.1-1.6c-1.1-4.6-2.3-9.1-3.8-13.5c-0.3-0.9-2.4-1.9-3.4-1.7
				c-2.9,0.5-5.6,1.6-7.9,2.3c1.1,1.9,2.3,3.9,3.5,5.8C231.4,103.8,229.4,104.1,227.1,104.4z M76.8,124.8c2.3,5.1,3.6,9.8,9.6,10.7
				c2.6,0.4,10.4-1.2,11.8-3.3c0.2-0.4,0.4-0.9,0.3-1.3c-1.2-4.1-2.4-8.1-3.7-12.6C88.5,120.6,82.8,122.7,76.8,124.8z M278.3,132.4
				c3.3,2.6,9,4.5,11.4,4.1c6-0.9,8.6-5,10.3-11.1c-5.7-2-11.6-4.1-17.9-6.4C280.6,124,279.5,128.2,278.3,132.4z M115.5,196.6
				c-5.6-10.2-11.1-20.3-16.7-30.4c-0.4,0.1-0.7,0.2-1.1,0.3c1.8,5.3-0.5,9.8-3.3,14.2c5.9,3.1,9.4,7.4,11.2,13.4
				C107,198.7,111.3,199.8,115.5,196.6z M261.5,196.6c4,3.1,8.4,2.3,9.7-2.1c1.8-6.3,5.5-10.8,10.5-13.4c-1.3-4.9-2.5-9.4-3.9-14.2
				C272.4,176.6,267,186.5,261.5,196.6z M124.7,192.1c-10.2-9.1-13.1-22.2-20.7-32.7c-1.7,0.8-3.3,1.6-5.1,2.4
				c6.6,11.4,13,22.3,19.5,33.4C120.4,194.1,122.3,193.2,124.7,192.1z M258.6,195.2c6.5-11.2,12.8-22,19.2-33c-1.8-1-3.4-2-4.9-2.8
				c-7.6,10.7-10.7,23.6-20.6,32.7C254.6,193.1,256.5,194.1,258.6,195.2z M197.1,207c-3.8,1.9-4.9,4.4-2.6,6.9
				c2.9,3.2,6.9,3.9,11.1,3.3c4.2-0.7,8.4-1.7,10.6-6c0.1-0.2,0.2-0.5,0.2-0.7c-0.1-3.2,0.2-6.5-0.5-9.6c-0.5-2-2.1-4-3.8-5.4
				c-2.2-1.8-3.1-1.2-4,1.7c3.9,2.9,4.9,5.5,3.6,9.9c-0.8,2.6-2.2,4.8-5.3,5.2C202,212.9,199.4,211.3,197.1,207z M179.4,206
				c-1.6,5.2-4.9,6.9-9,6.1c-2-0.4-4.7-2.4-5.1-4.1c-0.9-4.2-1-8.7,4-10.8c-0.7-3.1-2.9-3.3-4.3-1.6c-1.9,2.3-3.4,5.1-4.4,7.9
				c-0.7,2.1-0.4,4.5-0.1,6.7c0.1,1.3,0.7,2.8,1.6,3.6c4.3,3.8,11.9,4.5,17.1,2c2.4-1.1,3.8-2.9,3.3-5.3
				C182.3,209.1,180.8,207.9,179.4,206z M93.4,159c0.3,0.1,1.7,1,2.7,0.7c2.9-0.9,5.6-2.1,8.3-3.4c0.6-0.3,1.2-1.3,1.1-1.9
				c-0.9-4.1-2.1-8.2-3.2-12.5c-1.2,0.2-2.3,0.5-3.3,0.7c-3.2,0.5-4.7,1.8-4.4,5.4C95,151.2,94,154.6,93.4,159z M283.7,159.9
				c-0.7-4.4-1.5-7.4-1.6-10.5c-0.1-5.1,0.1-5.1-5.2-6.3c-0.8-0.2-1.6-0.2-2.6-0.4c-0.5,2.5-0.8,4.9-1.4,7.2
				c-1.7,6.9-1.8,6.9,4.9,9.6c0.7,0.3,1.4,0.7,2,0.7C281.4,160.1,282.9,159.9,283.7,159.9z M177.6,95.8c7.4,7.3,15.6,7.3,22.4,0.1
				c-5.3-1.5-9.7-3.9-11.1-9.9C187.4,91.8,183.2,94.3,177.6,95.8z M128.6,57.1c-2.9-0.8-6.1-1.8-9.3-2.6c-0.3-0.1-1,0.6-1.3,1.1
				c-2.7,4.1-3.9,8.6-3.3,13.5c3.6-1.1,6.8-2.1,9.6-2.9C125.7,63.2,127,60.6,128.6,57.1z M262.8,69.8c0.5-4.7-0.2-8.9-2.8-12.8
				c-0.5-0.7-1.5-1.9-2-1.7c-3.1,0.7-6.2,1.8-9.1,2.6c1.7,3.5,3,6.1,4.4,9C256.1,67.7,259.3,68.7,262.8,69.8z M183.5,151.8
				c-0.4-0.2-0.9-0.4-1.4-0.7c-1.6,1.9-3.2,3.7-4.6,5.8c-1.2,1.7-0.6,2.7,1.6,3.3c1.7,0.4,3.5,1.2,5,2.2c2.4,1.6,7.3,1.6,9.7,0
				c1.5-1,3.2-1.7,5-2.1c1.8-0.5,2.8-1.4,1.6-3c-1.4-2.1-3.2-4-4.9-6c-0.4,0.2-0.8,0.4-1.2,0.6c0.6,1.7,1.2,3.4,1.7,4.7
				c-4.8,5.5-9.7,5.4-14.4,0C182.1,155.1,182.8,153.4,183.5,151.8z M149.9,82.1c0.1,0.6,0.2,1.2,0.4,1.9c3.2,0.5,6.3,1,9.6,1.6
				c-0.2-3.5-0.3-5.9-0.4-9.3C155.8,78.5,152.8,80.3,149.9,82.1z M217.9,86.5c3.5-0.7,6.6-1.3,9.8-1.9c0.1-0.5,0.2-1.1,0.3-1.6
				c-3-1.8-6.1-3.7-9.6-5.9C218.2,80.6,218.1,83,217.9,86.5z M170.6,129.6c-0.3,0.4-0.6,0.8-0.9,1.2c2.6,2.2,5.2,4.5,7.9,6.7
				c0.3,0.2,1.2-0.2,1.9-0.4c-0.2-0.6-0.1-1.5-0.5-1.9c-1.7-1.7-3.5-3.3-5.4-4.7C172.8,130,171.6,129.9,170.6,129.6z M208.6,130.2
				c-1.7-0.4-2.4-0.8-2.6-0.6c-2.6,2-5.3,4.1-7.8,6.2c-0.2,0.2-0.2,1.1,0,1.3c0.4,0.3,1.3,0.7,1.6,0.5
				C202.5,135.4,205.2,133.1,208.6,130.2z M248,90.3c-2.9,1.4-4.9,2.3-7,3.3c1.7,2.3,3.2,4.1,4.3,5.6C246.1,96.6,246.9,94,248,90.3z
				 M130,89.8c0.9,3.6,1.6,6.4,2.3,9.1c1.2-1.7,2.7-3.8,4.4-6.2C134.5,91.8,132.5,90.9,130,89.8z"/>
			<path class="st3" d="M167,78.7c-0.8-3.1,2.4-3,4.1-3.6c1.3-0.5,3.3,0.1,4.7,0.7s2.7,1.8,3.4,3.1c1,1.7,2.4,4.2,1.7,5.6
				c-0.8,1.6-3.4,3-5.3,3.2C170.9,88.1,167,83.9,167,78.7z"/>
			<path class="st3" d="M203.2,88c-1.4-0.3-3-0.3-4.1-1c-1.2-0.8-2.1-2.2-2.6-3.5c-0.5-1.4,4.3-7.9,6.5-8.1c2.4-0.1,5,1,7.3,2
				c0.6,0.3,0.6,2.4,0.4,3.6C209.9,85.4,206.9,88,203.2,88z"/>
		</g>
	</g>
</g>
<g id="front" class="st0">
	<g class="st1">
		<g>
			<path d="M130.8,199.7c-7-6.8-11.8-14.1-8.9-22.7c0.9-2.9,2.4-5.6,4.1-8.3c1.8-2.8,4.2-5.3,8.9-6.2c0.6-0.1,1-0.4,1.5-0.6
				c-0.4-0.3-0.9-0.6-1.3-0.9c-4.2-2.7-8.9-5.1-12.5-8.1c-8.2-6.8-8.1-14.8-3.6-22.5c4.6-7.9,14.1-11.6,26-12.6
				c0.9-0.1,1.7-0.2,2.6-0.2c-0.5-0.6-1.1-1.1-1.5-1.7c-1.6-3-4.1-5.9-4.4-8.9c-0.6-7.3,1.3-14.2,9.7-19.5
				c5.4-3.4,11.4-5.2,18.6-5.2c1.8,0,3.6,0,5.3,0c4.5,0,4.8,0,3.5-3.2c-4.1-9.9,2.2-17.8,12.9-23.2c0.8-0.4,1.2-1.6,1-2.3
				c-0.6-1.9-1.9-3.7-2.4-5.6c-2.6-9.3,6.4-17,20.1-17.2c0,2.3,0,4.7,0,7c-1.4,0.4-2.9,0.6-4.3,1.1c-5,1.8-7.3,5.9-4.9,9.2
				c0.7,1,2.6,2,4.2,2.2c0.9,0.1,2.4-1.2,3.3-2.1c0.4-0.4,0-1.3-0.1-2c-0.7,0.4-1.4,0.7-2.1,1.1c-0.6,0.3-1.1,0.6-1.7,0.8
				c-0.4-0.4-1-0.8-1.2-1.3c-1.2-3,1.4-5.5,6.8-6.4c0,11.6,0,23.2,0,34.9c-3.6-0.8-6.9-1.2-9.2,1.7c-0.7,0.9-2.1,1.6-3.5,2
				c-3.9,1.3-4,1.4-1.6,3.9c0.8,0.8,1.7,1.6,2.5,2.3c1.3,1.3,2.6,1.5,4.8,0.6c2.1-0.9,4.6-1.3,6.9-2c0,37.9,0,75.8,0.1,113.8
				c0,1.8-0.5,2.2-3.1,2.2c-14-0.1-28-0.1-42-0.1c0.4-0.8,0.7-1.5,1-2.2c0.2-0.6,0.5-1.1,0.7-1.7c-0.9,0.1-1.9,0.1-2.6,0.3
				c-6.1,2.1-12.6,2.9-19.2,1.8c-2.9-0.5-4.6,0.1-5.9,1.8C136.4,199.7,133.6,199.7,130.8,199.7z M163.7,95.6c0,0.1-0.1,0.7-0.3,1.3
				c-1.7,4.5-5.4,5.2-10.1,1.9c-1.5-1.1-2.6-2.4-3.9-3.6c-0.4-0.3-1.2-0.3-1.8-0.5c-0.1,1.3-1.1,3-0.2,3.7c3.8,3.4,8.6,6.1,14.8,7.1
				c0.7,0.1,1.6,0.2,2.3,0c4.9-1,8.8-7.5,6.3-10.6c-2-2.4-3-4.9-2.2-7.7c0.2-0.8,0.6-1.6,0.9-2.4c-1.6,0-3.5-0.3-4.8,0.1
				c-1.1,0.4-2.4,1.7-2.3,2.6C162.3,90.2,163.1,92.7,163.7,95.6z M205.2,66.8c-0.4-0.1-0.8-0.1-1.1-0.2c0.5-2.5,1.2-5,1.4-7.5
				c0.1-1-0.9-3-1.1-3c-2.3,0.2-5.2-0.3-5.6,2.5c-0.3,2.8-1.2,5.6-1.9,8.4c-0.8,2.9-2.6,3.8-6.7,3.3c-1.7-0.2-3.3-0.9-4.9-1.3
				c-1-0.2-2.1-0.3-3.2-0.5c0,1.4-0.8,3.4,0.2,4.1c2.4,1.6,5.6,2.8,8.6,3.8c3.8,1.2,6.5,0.4,8.6-2.2c1.3-1.5,2.6-3.1,3.9-4.6
				C204.2,68.7,204.6,67.7,205.2,66.8z M132.5,139.3c-0.6,3.7-2.6,4.6-6.9,2.9c-1.1-0.4-2-1.1-3.1-1.6c-0.7-0.4-1.3-0.7-2-1
				c-0.1,0.7-0.4,1.4-0.3,2s0.7,1.1,1.2,1.6c3.2,2.7,10.6,4.1,15.3,2.9c1-0.2,2.1-0.8,2.5-1.4c1.5-2.5-1.9-10.3-4.8-12.2
				c-2.1-1.5-3.7-3.3-5.6-5c-0.5-0.4-0.9-0.9-1.3-1.3c-0.5,0.7-1.5,1.4-1.3,1.9c0.7,1.9,1.9,3.6,2.9,5.4
				C130.1,135.4,131.3,137.4,132.5,139.3z M124.9,183.3c-0.3,1.9,0.3,3,3.7,1.9c3.3-1.1,5.9-0.2,7.8,1.9c1.9,2.1,1.6,4.1-1.4,5.7
				c-0.8,0.4-1.6,0.9-2.3,1.4c-2.7,1.8,0.3,2.6,1.3,3.7c1.4,1.4,2.2,0.1,3.1-0.6c1.7-1.4,3.4-2.9,5.2-4.3c2.6-2.2,5.1-4.4,1.9-7.4
				c-0.4-0.4-0.6-1-0.9-1.5c-0.7-1.6-2.1-2.2-4.5-2.1c-3.8,0-7.6-0.1-11.4-0.6C124.8,181.1,124.6,181.7,124.9,183.3z M153.5,124.6
				c1.3,0,2.6,0.2,3.8-0.1c1-0.2,2.6-0.9,2.6-1.4c0-0.7-1-2-1.9-2.1c-7.7-1-15.4-1.3-22.7,1c-2.6,0.8-3.3,2.3-2.9,4.2
				c0.4,1.5,1.3,2.3,3.6,1.3C141.3,125.1,147.4,124.7,153.5,124.6z M176.2,96.6c-0.1,0.4-0.4,0.8-0.5,1.3c-0.9,4.6-5.1,7.8-10.4,9.9
				c-2.4,1-2.2,1.6-1.2,2.7c0.8,0.8,1.7,1.5,2.7,2.2c1.4,1,2.5,1.2,3.5-0.5s2.4-3.6,4.4-4.6c3.5-1.7,5.1-3.9,6.6-6.5
				C182.4,98.9,180.3,96.6,176.2,96.6z M149.2,133c-1.2,0.2-3.2,0.1-3.5,0.5c-1.3,2.3-2.6,4.8-3.2,7.2c-0.5,1.9-0.2,3.9,0.1,5.8
				c0.1,0.6,1.1,1.2,1.7,1.8c0.6-0.4,1.3-0.7,1.7-1.2c1.2-1.3,2-3.4,3.7-3.8c4.5-1.2,4.1-3.4,3.4-5.9c-0.1-0.5-0.3-1.1-0.1-1.6
				C153.6,133.6,152.2,132.8,149.2,133z M149.4,175.8c-2.4,0.7-3.9,1-5.1,1.6c-1.7,0.8-5.1,1.5-0.3,2.8c1,0.3,1.6,1.3,2.2,2.1
				c1.5,2.1,2.7,4.2,4.5,6.2c0.5,0.5,2.4,0.6,3.6,0.6c0.6,0,1.4-1.1,1.3-1.6c-0.6-2.3-1.2-4.7-2.4-6.9
				C152.2,178.9,150.6,177.4,149.4,175.8z M125.1,177.6c0.4,0.4,1,0.9,1.6,1.4c0.6-0.5,1.4-0.9,1.8-1.5c1.6-2.2,2.6-4.7,4.8-6.6
				c2.2-1.9,5.5-3.1,8.1-4.7c0.8-0.5,0.9-1.7,1.3-2.5c-1-0.1-2-0.5-2.9-0.4C129.4,165.1,127.9,171.4,125.1,177.6z M181.2,76.2
				c1.5,2.8,2.1,5.4,4,7.2c2.6,2.3,6.3,4,9.6,5.9c0.7,0.4,1.7,0.4,2.6,0.6c-0.3-0.7-0.3-1.4-0.8-2c-1.7-1.9-5-3.7-5.2-5.7
				c-0.4-3.8-4.6-4.5-7.8-6.1C183.3,76,182.5,76.2,181.2,76.2z M175.4,87.6c4.7-0.4,7.9,0.6,10.5,2.5c1.5,1.1,2.8,2.4,4.4,3.3
				c0.8,0.5,2.3,0.3,3.5,0.5c-0.2-0.7-0.2-1.6-0.8-2c-2.2-1.7-4.4-3.5-7.2-4.7c-2.7-1.2-5.9-1.9-9-2.4c-1-0.1-2.5,1.3-3.8,2
				C174,87.1,175,87.4,175.4,87.6z M143.3,158.7c0-0.4,0.1-0.7,0.1-1c-0.8-0.4-1.5-0.9-2.4-1.1c-5.4-1.5-10.2-3.5-13.3-7.1
				c-0.6-0.7-2.2-1.1-3.3-1.5c-0.4-0.1-0.9,0-1.4,0c0.1,0.3,0.2,0.7,0.4,1c4.4,4.4,9.4,8.4,16.7,10.5
				C140.9,159.5,142.2,158.9,143.3,158.7z M155.1,117.9c-0.7-1.1-1.4-1.8-1.7-2.6c-1.5-3.2-2.9-6.4-4.4-9.6
				c-0.6-1.3-1.4-2.5-2.2-3.7c0,0-1.5,0.2-1.6,0.4C143.2,108.2,147.2,114.5,155.1,117.9z M154.7,109.3c2.4,2.5,5,5.2,7.7,7.8
				c0.2,0.2,1.8,0,2.5-0.3c0.4-0.2,0.6-1.2,0.4-1.4c-3-1.8-4.7-4-5.5-6.8c-0.2-0.6-2.4-1-3.6-1.4
				C155.8,107.6,155.5,108.1,154.7,109.3z M141.9,135.7c1.4-4.3,2.2-4.8,8.5-4.8c0.9,0,1.9,0.2,2.6,0c0.9-0.3,1.5-0.9,2.3-1.4
				c-0.7-0.2-1.5-0.6-2.2-0.6c-3.5,0.2-7.1,0.4-10.5,0.9c-2.5,0.4-4.6,1.4-1.9,3.5C141.4,134,141.5,134.9,141.9,135.7z M136.8,179.7
				c0.5-0.2,0.7-0.2,0.7-0.2c2-3,5.9-4.2,9.8-5.6c0.3-0.1,0.3-1,0.2-1.5c-0.1-0.3-0.9-0.6-1.3-0.6c-3.5,0-9.6,4.2-9.9,6.7
				C136.2,178.9,136.6,179.3,136.8,179.7z M175.7,91.4c-1.5,0.5-2.1,0.8-2.7,1c0.5,0.6,0.8,1.5,1.5,1.7c3.1,1,6.3,1.9,9.4,2.7
				c0.4,0.1,1.1-0.1,1.6-0.2c-0.2-0.3-0.2-0.8-0.5-0.9C181.8,94.2,178.6,92.7,175.7,91.4z M151.6,193.2c0.1,0.1,0.1,0.3,0.2,0.4
				c2.7-0.7,5.4-1.3,8-2.1c0.5-0.2,0.7-0.9,1-1.4c-0.8-0.1-1.7-0.4-2.4-0.2c-3,0.5-6,1.2-8.9,1.8c-0.6,0.1-1,0.6-1.6,0.9
				c0.6,0.2,1.2,0.5,1.8,0.6C150.3,193.3,151,193.2,151.6,193.2z"/>
		</g>
	</g>
	<g class="st1">
		<g>
			<path d="M130.8,199.4c-7,6.8-11.9,14.1-9,22.7c1,2.9,2.4,5.6,4.1,8.3c1.8,2.8,4.3,5.3,8.9,6.2c0.6,0.1,1,0.4,1.5,0.6
				c-0.4,0.3-0.9,0.6-1.3,0.9c-4.2,2.7-9,5.1-12.7,8.1c-8.3,6.8-8.2,14.8-3.6,22.5c4.7,7.9,14.3,11.6,26.2,12.6
				c0.9,0.1,1.8,0.2,2.6,0.2c-0.5,0.6-1.1,1.1-1.5,1.7c-1.6,3-4.2,5.9-4.4,8.9c-0.6,7.3,1.3,14.2,9.8,19.5
				c5.4,3.4,11.5,5.2,18.8,5.2c1.8,0,3.6,0,5.4,0c4.6,0,4.8,0,3.5,3.1c-4.1,9.9,2.2,17.8,13,23.2c0.8,0.4,1.2,1.6,1,2.3
				c-0.6,1.9-1.9,3.7-2.5,5.6c-2.6,9.3,6.5,17,20.2,17.2c0-2.3,0-4.6,0-7c-1.4-0.4-2.9-0.6-4.3-1.1c-5.1-1.8-7.4-5.9-5-9.2
				c0.7-1,2.6-2,4.2-2.2c0.9-0.1,2.5,1.2,3.3,2.1c0.4,0.4,0,1.3-0.1,2c-0.7-0.4-1.4-0.7-2.1-1.1c-0.6-0.3-1.1-0.6-1.7-0.9
				c-0.4,0.4-1,0.8-1.2,1.3c-1.2,3,1.4,5.5,6.9,6.4c0-11.6,0-23.2,0-34.9c-3.6,0.8-6.9,1.2-9.3-1.7c-0.7-0.9-2.1-1.6-3.5-2
				c-4-1.3-4.1-1.4-1.6-3.9c0.8-0.8,1.7-1.6,2.6-2.3c1.4-1.3,2.6-1.5,4.8-0.6c2.1,0.9,4.6,1.3,7,2c0-37.9,0-75.8,0.1-113.8
				c0-1.8-0.5-2.2-3.2-2.2c-14.1,0.1-28.2,0.1-42.4,0.1c0.4,0.8,0.7,1.5,1.1,2.2c0.2,0.6,0.5,1.1,0.7,1.7c-0.9-0.1-1.9-0.1-2.7-0.3
				c-6.2-2.1-12.7-2.9-19.4-1.8c-2.9,0.5-4.6-0.1-5.9-1.8C136.4,199.4,133.6,199.4,130.8,199.4z M163.9,303.5c0-0.1-0.1-0.7-0.3-1.3
				c-1.7-4.5-5.5-5.2-10.1-1.9c-1.5,1.1-2.6,2.4-4,3.6c-0.4,0.3-1.2,0.3-1.8,0.5c-0.1-1.3-1.1-3-0.2-3.7c3.9-3.4,8.7-6.1,14.9-7.1
				c0.7-0.1,1.6-0.2,2.3,0c5,1,8.9,7.5,6.3,10.6c-2,2.4-3,4.9-2.2,7.7c0.2,0.8,0.6,1.6,0.9,2.5c-1.6,0-3.5,0.3-4.8-0.1
				c-1.2-0.4-2.4-1.7-2.3-2.6C162.6,308.9,163.3,306.5,163.9,303.5z M205.8,332.4c-0.4,0.1-0.8,0.1-1.1,0.2c0.5,2.5,1.2,5,1.5,7.5
				c0.1,1-0.9,3-1.1,3c-2.3-0.2-5.3,0.3-5.6-2.5s-1.2-5.6-1.9-8.4c-0.8-2.9-2.7-3.9-6.8-3.3c-1.7,0.2-3.3,0.9-5,1.3
				c-1,0.2-2.1,0.4-3.2,0.5c0-1.4-0.8-3.4,0.2-4.1c2.4-1.6,5.6-2.8,8.7-3.8c3.8-1.2,6.5-0.4,8.7,2.2c1.3,1.5,2.7,3,3.9,4.6
				C204.8,330.4,205.2,331.4,205.8,332.4z M132.5,259.8c-0.6-3.7-2.6-4.6-7-2.9c-1.1,0.4-2.1,1-3.1,1.6c-0.7,0.4-1.4,0.7-2.1,1
				c-0.1-0.7-0.5-1.4-0.3-2c0.1-0.6,0.7-1.1,1.2-1.6c3.2-2.7,10.7-4.1,15.4-2.9c1,0.2,2.1,0.8,2.5,1.4c1.5,2.5-2,10.3-4.8,12.2
				c-2.1,1.5-3.8,3.3-5.6,5c-0.5,0.4-0.9,0.9-1.4,1.3c-0.5-0.6-1.5-1.4-1.3-1.9c0.7-1.9,1.9-3.6,2.9-5.4
				C130.1,263.7,131.3,261.8,132.5,259.8z M124.8,215.8c-0.3-1.9,0.3-3,3.8-1.9c3.4,1.1,6,0.2,7.9-1.9c1.9-2.1,1.6-4.1-1.4-5.7
				c-0.8-0.4-1.6-0.9-2.3-1.4c-2.7-1.8,0.3-2.6,1.4-3.7c1.4-1.4,2.3-0.1,3.1,0.6c1.7,1.4,3.5,2.9,5.2,4.3c2.6,2.2,5.2,4.4,1.9,7.4
				c-0.4,0.4-0.6,1-0.9,1.5c-0.7,1.6-2.1,2.2-4.6,2.1c-3.8,0-7.7,0.1-11.5,0.6C124.8,218.1,124.5,217.4,124.8,215.8z M153.7,274.5
				c1.3,0,2.6-0.2,3.8,0.1c1,0.2,2.6,0.9,2.6,1.5c0,0.7-1,2-1.9,2.1c-7.7,1-15.5,1.3-22.9-1c-2.6-0.8-3.4-2.3-2.9-4.2
				c0.4-1.5,1.3-2.3,3.6-1.3C141.4,274,147.5,274.4,153.7,274.5z M176.5,302.5c-0.1-0.4-0.4-0.8-0.5-1.3c-0.9-4.6-5.1-7.8-10.5-9.9
				c-2.4-1-2.2-1.6-1.2-2.7c0.8-0.8,1.7-1.5,2.7-2.2c1.4-1,2.5-1.2,3.6,0.5s2.4,3.6,4.4,4.6c3.6,1.7,5.2,4,6.6,6.5
				C182.9,300.2,180.7,302.5,176.5,302.5z M149.3,266.2c-1.2-0.2-3.2-0.1-3.5-0.5c-1.4-2.3-2.6-4.8-3.2-7.2
				c-0.5-1.9-0.2-3.9,0.1-5.8c0.1-0.6,1.1-1.2,1.7-1.8c0.6,0.4,1.3,0.7,1.7,1.2c1.3,1.3,2,3.4,3.7,3.8c4.6,1.3,4.2,3.4,3.4,5.9
				c-0.1,0.5-0.3,1.1-0.1,1.6C153.7,265.5,152.4,266.3,149.3,266.2z M149.5,223.3c-2.4-0.7-3.9-1-5.2-1.6c-1.7-0.8-5.1-1.5-0.3-2.8
				c1-0.3,1.6-1.3,2.2-2.1c1.5-2.1,2.8-4.2,4.5-6.2c0.5-0.5,2.4-0.6,3.6-0.6c0.6,0,1.5,1.1,1.3,1.6c-0.6,2.3-1.3,4.7-2.4,6.9
				C152.4,220.3,150.7,221.8,149.5,223.3z M125,221.5c0.4-0.4,1-0.9,1.7-1.4c0.6,0.5,1.4,0.9,1.8,1.5c1.6,2.2,2.6,4.7,4.8,6.6
				c2.2,1.9,5.6,3.1,8.2,4.7c0.8,0.5,0.9,1.7,1.3,2.5c-1,0.1-2.1,0.5-2.9,0.4C129.4,234,127.8,227.7,125,221.5z M181.6,322.9
				c1.5-2.8,2.1-5.4,4.1-7.1c2.6-2.3,6.4-4,9.7-6c0.7-0.4,1.7-0.4,2.6-0.6c-0.3,0.7-0.3,1.4-0.8,2c-1.8,1.9-5,3.7-5.2,5.7
				c-0.4,3.8-4.6,4.5-7.8,6.1C183.7,323.1,182.9,322.9,181.6,322.9z M175.7,311.5c4.8,0.4,7.9-0.6,10.6-2.5c1.5-1.1,2.8-2.4,4.4-3.3
				c0.8-0.5,2.3-0.3,3.5-0.5c-0.2,0.7-0.2,1.6-0.8,2c-2.3,1.7-4.5,3.5-7.2,4.7s-5.9,1.9-9.1,2.4c-1,0.1-2.5-1.3-3.8-2
				C174.3,312,175.3,311.7,175.7,311.5z M143.4,240.4c0,0.4,0.1,0.7,0.1,1c-0.8,0.4-1.5,0.9-2.4,1.1c-5.5,1.5-10.2,3.5-13.4,7.1
				c-0.6,0.7-2.2,1.1-3.4,1.5c-0.4,0.1-0.9,0-1.4,0c0.1-0.3,0.2-0.7,0.4-1c4.5-4.4,9.4-8.4,16.8-10.5
				C141,239.6,142.3,240.2,143.4,240.4z M155.3,281.2c-0.7,1-1.4,1.8-1.8,2.6c-1.5,3.2-2.9,6.4-4.4,9.6c-0.6,1.3-1.4,2.5-2.2,3.7
				c0,0-1.6-0.2-1.6-0.4C143.3,290.9,147.3,284.6,155.3,281.2z M154.9,289.8c2.5-2.5,5.1-5.2,7.8-7.8c0.2-0.2,1.8,0,2.5,0.4
				c0.4,0.2,0.6,1.2,0.4,1.4c-3.1,1.8-4.8,4-5.5,6.8c-0.2,0.6-2.4,1-3.7,1.4C156,291.5,155.6,291,154.9,289.8z M142,263.4
				c1.4,4.3,2.3,4.8,8.5,4.8c0.9,0,1.9-0.2,2.7,0c0.9,0.3,1.6,1,2.3,1.5c-0.7,0.2-1.5,0.6-2.2,0.6c-3.6-0.2-7.1-0.4-10.6-1
				c-2.6-0.4-4.6-1.4-1.9-3.5C141.5,265.2,141.6,264.2,142,263.4z M136.8,219.4c0.5,0.2,0.7,0.2,0.7,0.2c2,3,6,4.2,9.9,5.6
				c0.4,0.1,0.3,1,0.2,1.5c-0.1,0.3-0.9,0.6-1.3,0.6c-3.5,0-9.7-4.2-10-6.7C136.2,220.2,136.6,219.8,136.8,219.4z M176,307.7
				c-1.5-0.5-2.1-0.8-2.7-1c0.5-0.6,0.8-1.5,1.5-1.7c3.1-1,6.3-1.9,9.5-2.7c0.4-0.1,1.1,0.1,1.6,0.2c-0.2,0.3-0.2,0.8-0.5,0.9
				C182.2,304.9,179,306.4,176,307.7z M151.7,205.9c0.1-0.1,0.1-0.3,0.2-0.4c2.7,0.7,5.4,1.3,8,2.1c0.5,0.2,0.7,0.9,1,1.4
				c-0.8,0.1-1.7,0.4-2.4,0.2c-3-0.5-6-1.2-9-1.8c-0.6-0.1-1.1-0.6-1.6-0.9c0.6-0.2,1.2-0.5,1.8-0.6
				C150.4,205.8,151.1,205.9,151.7,205.9z"/>
		</g>
	</g>
</g>
<g id="Layer_3" class="st0">
	<path class="st4" d="M209.8,87.4c-3.6,0.9-7.6,1.3-10.7,2.8c-6.2,2.9-13.2,5.2-17.7,9.7c-0.6,0.6-1.3,1.1-2.2,1.4
		c-3.3,1.3-6.6,2.4-9.9,3.7c-2.7,1-4.7,2.4-4.8,4.8c0,0.7-1,1.4-1.9,1.9c-3.7,2.2-5.9,4.8-5.5,8.4c0.1,0.6-1.4,1.4-2.3,1.8
		c-2.9,1.2-6.1,2.1-8.9,3.3c-1,0.4-2,1.4-2,2.2c0.1,3.4-2.6,5.3-5.8,7.5c-3.2,2.3-3.7,5.6-2.9,8.8c0.5,1.8-0.1,3-1.8,4.5
		c-2.1,1.8-2.6,4.5-3.8,6.8c-0.6,1.2-1.4,2.3-2.1,3.5c-0.8,1.4-2.4,2.8-2.2,4.1c0.8,3.6,0.9,7.3,4.7,10.3c1.1,0.9,1.5,2.6,1.1,3.8
		c-0.8,2.7-0.9,5.1,1.5,7.4c0.7,0.7,1.2,1.7,1.1,2.5c-0.6,5.2,3.3,8.6,9.1,11.2c2.9,1.3,5.9,2.3,9.5,3.7c-1.8,1.6-3.4,3.1-5,4.5
		c9.4,0,18.8,0,28.2,0c-3.2-1.2-6.3-2.6-9.6-3.7c-6.4-2.1-12.9-4-19.4-6c0-0.3-0.1-0.6-0.1-1c1.4-0.2,3-0.8,4.1-0.5
		c6.4,1.8,12.8,3.8,19.1,5.8c3,1,5.6,2.4,8.7,3.3c2.6,0.8,5.5,1,8-1.3c-1.6-0.3-2.7-0.4-3.5-0.8c-1.2-0.5-3-1.2-3-1.9
		c-0.1-0.8,1.2-1.9,2.2-2.5c2.3-1.2,8.7-0.9,10.5,0.3c2.8,2,2.5,4.3,0.8,6.7c-0.3,0.5-0.7,1-1,1.4c1.5,0,3.1,0,4.6,0
		c0.6-2.1,2-4.3,1.8-6.3c-0.3-2.7-2.9-5-6.9-5.3c-5.6-0.5-11.4-0.8-15.2,3c-1.4,1.4-2.5,1.5-4.4,0.7c-2.9-1.2-5.7-2.3-8.7-3.3
		c-3.6-1.2-7.4-2.2-12.3-3.6c3.9-1.7,6.8-3.2,10-4.2c7.4-2.3,15.1-3.2,23.2-1.4c8.9,2,15.3,6.1,21.4,10.8c1,0.8,2.8,1.1,4.2,1.6
		c0-0.9,0-1.8,0-2.7c-4.5-3.7-9-7.4-13.4-11c4.4-1.2,4.7-4.2,2.3-7.9c-2.2-3.3-8.9-4.8-12.8-2.3c-1.3,0.8-1.5,2.6-1.7,4
		c0,0.3,2.5,1.2,3.2,1c1.4-0.5,2.4-1.6,3.9-2.7c0.1,0.5,0.6,1.5,0.2,2.3c-1,2.1-3.9,2.4-6.3,2c-1.6-0.3-3.5-1.5-4-2.6
		c-1.3-2.7,1.1-5.4,5-6.3c5.8-1.4,12.5,0.7,14.7,4.8c2.4,4.4,2.4,4.4,8.2,1.9c0.2-0.1,0.4-0.2,0.7-0.2c0-3.6,0-7.1,0-10.7
		c-3-1.1-6-2.2-8.9-3.3c-1.1-0.4-2.7-1-2.9-1.6c-0.2-0.7,0.6-2,1.5-2.4c3.3-1.4,6.9-2.6,10.3-3.9c0-0.9,0-1.8,0-2.7
		c-3.4,0.6-6.7,1.3-10.4,2c-3.6-5.8-5.6-11.9-1.6-17.8c2.7-3.9,7.9-7,12-10.5c0-3.8,0-7.5,0-11.3c-4.3,3.6-9.9,5.8-16.4,6.8
		c-4,0.6-7.3,1.9-9.5,4.5c-1.3,1.5-1,2.4,1,3.3c2.3,1.1,4.7,2.2,6.7,3.5c0.9,0.6,1.6,1.8,1.4,2.6c-0.8,3.9-2,7.7-3,11.4
		c0,0-0.5-0.6-1.2-0.9c-1.7-0.7-3.6-1.2-5.4-1.8c-0.3,1.3-1.3,2.8-0.7,3.9c1.6,3.3,3.9,6.4,6,9.5c0.7,1.1,1.5,2.1,2.1,2.9
		c-5.7,1.2-10.9,2.3-16.1,3.3c-0.9,0.1-2.6-0.5-3.1-1.1c-1.4-1.7-2.1-3.6-3.4-5.4c-7.4-9.8-8.4-20.5-7.8-31.3c0-0.8,1.9-2.1,2.8-2.1
		c4,0.1,8.1,0.3,12,1c2.4,0.4,3.9,0.1,5.8-0.9c2.8-1.5,5.8-3.2,9.1-3.7c8.2-1.3,15-3.9,19.7-8.9C209.8,104.2,209.8,95.8,209.8,87.4z
		 M130.4,169.1c1.6-0.6,2.2-1,2.8-1.2c7.9-2.1,15.8-4.2,23.8-6.2c6.7-1.6,6.7-1.5,9.1,3c0.7,1.2,1.6,2.4,2.3,3.7
		c0.9,1.7,0.1,2.8-2.5,3.1c-2.2,0.3-4.6,0.3-6.8,0.6c-0.9,0.1-2.1,0.6-2.3,1.1s0.4,1.4,1.1,1.8c1.9,1.1,4.2,2,6.1,3.2
		c0.9,0.6,2,1.5,1.9,2.3c-0.1,0.7-1.3,1.6-2.4,2c-2.2,0.9-4.5,1.8-6.9,2.2c-1.7,0.3-4.4,0.5-5.4-0.2
		C144.3,179.5,137.6,174.4,130.4,169.1z M161.6,118.3c1.6-1.6,3.1-3.2,4.7-4.8c1-1,2.6-1.9,2.8-3c0.8-3.9,5-5.3,9.2-6.2
		c2.8-0.6,4.7-1.2,6-3.1c0.6-0.9,1.6-1.6,2.6-2.3c4.3-2.9,11-1.4,12.9,2.6c2.2,4.7-2.1,10.7-8.9,11.8c-7.1,1.1-14.1,2.9-19.5,6.8
		c-1,0.8-2.9,1.1-4.4,1.3C163.4,122,162.5,121.4,161.6,118.3z M137.1,150.8c0.4-0.4,0.7-0.9,1.3-1.1c4.7-1.5,9.4-3.1,14.3-4.4
		c0.9-0.2,3,0.5,3.4,1.1c1.8,3,3.2,6.2,4.8,9.3c0.7,1.4,0.1,2.2-2,2.5c-3.1,0.5-6.1,1.2-9.2,1.8c-5.4,1.1-5.4,1.1-8-2.6
		C140.2,155.3,138.7,153.1,137.1,150.8z M155.7,124.7c-0.2,2.7-0.2,5.1-3.3,7c-1.4,0.9-2.4,2.3-3.2,3.6c-1.7,2.7-3.1,5.5-4.8,8.2
		c-0.4,0.7-1.8,1.1-2.9,1.5c-0.3,0.1-1.3-0.5-1.5-0.9c-1.5-2.4,0.1-7.4,3.2-8.5c3.6-1.3,4.2-3.2,4.2-5.7
		C147.3,126.4,150.1,124.8,155.7,124.7z M134.9,178.4c0.5-0.2,1.1-0.3,1.6-0.5c1.2,1.5,2.7,2.9,3.7,4.4c1.2,1.8,2.4,3.7,3,5.6
		c0.5,1.6,0.4,3.2,0.3,4.9c0,0.1-1.4,0.5-1.5,0.4c-1.1-1.3-2.2-2.6-3.2-4c-0.1-0.1,0-0.2,0-0.3c-0.9-2.4-1.8-4.7-2.6-7.1
		C135.8,180.6,135.3,179.5,134.9,178.4z M130,164.7c0-1.1-0.4-2.3,0.1-3.3c1.3-2.5,3.1-4.9,4.6-7.3
		C137.1,158.1,132.6,161.2,130,164.7z"/>
	<path class="st4" d="M210.1,324.2c-3.6-0.9-7.7-1.3-10.8-2.8c-6.2-2.9-13.2-5.2-17.8-9.6c-0.6-0.5-1.3-1.1-2.2-1.4
		c-3.3-1.3-6.7-2.5-10-3.7c-2.7-1-4.7-2.4-4.8-4.8c0-0.6-1-1.4-1.9-1.9c-3.7-2.2-5.9-4.8-5.6-8.4c0.1-0.6-1.4-1.4-2.3-1.8
		c-2.9-1.2-6.1-2.1-9-3.3c-1-0.4-2.1-1.4-2-2.2c0.1-3.4-2.6-5.3-5.8-7.5c-3.2-2.3-3.7-5.6-2.9-8.8c0.5-1.8-0.1-3-1.9-4.5
		c-2.1-1.8-2.6-4.5-3.9-6.8c-0.6-1.2-1.4-2.3-2.1-3.5c-0.8-1.4-2.4-2.8-2.2-4.1c0.8-3.6,0.9-7.3,4.7-10.3c1.1-0.9,1.5-2.6,1.1-3.8
		c-0.8-2.7-0.9-5.1,1.5-7.4c0.7-0.7,1.2-1.7,1.1-2.5c-0.6-5.2,3.4-8.6,9.1-11.2c2.9-1.3,6-2.3,9.5-3.7c-1.8-1.6-3.4-3.1-5.1-4.5
		c9.5,0,19,0,28.4,0c-3.2,1.2-6.3,2.6-9.6,3.7c-6.4,2.1-13,4-19.5,6c0,0.3-0.1,0.6-0.1,1c1.4,0.2,3,0.8,4.1,0.5
		c6.5-1.8,12.9-3.8,19.2-5.8c3-1,5.7-2.4,8.7-3.3c2.6-0.8,5.5-1,8.1,1.3c-1.6,0.3-2.7,0.4-3.5,0.8c-1.2,0.5-3,1.2-3.1,1.9
		c-0.1,0.8,1.2,1.9,2.3,2.5c2.4,1.2,8.8,0.9,10.5-0.3c2.8-2,2.5-4.3,0.8-6.7c-0.4-0.5-0.7-1-1-1.4c1.5,0,3.1,0,4.6,0
		c0.6,2.1,2,4.3,1.8,6.3c-0.3,2.7-2.9,5-7,5.3c-5.6,0.5-11.5,0.8-15.3-3c-1.4-1.4-2.5-1.5-4.4-0.7c-2.9,1.2-5.8,2.3-8.8,3.3
		c-3.7,1.2-7.4,2.2-12.4,3.6c3.9,1.7,6.8,3.2,10.1,4.2c7.5,2.3,15.2,3.2,23.4,1.4c8.9-2,15.4-6.1,21.5-10.8c1-0.8,2.8-1.1,4.3-1.6
		c0,0.9,0,1.8,0,2.7c-4.5,3.7-9.1,7.4-13.5,11c4.4,1.2,4.8,4.2,2.3,7.9c-2.2,3.3-9,4.8-12.9,2.3c-1.3-0.8-1.5-2.6-1.7-4
		c0-0.3,2.5-1.2,3.3-1c1.4,0.5,2.4,1.6,3.9,2.7c0.1-0.5,0.6-1.5,0.2-2.3c-1-2.1-3.9-2.4-6.3-2c-1.6,0.3-3.5,1.5-4,2.6
		c-1.3,2.7,1.1,5.4,5,6.3c5.8,1.4,12.6-0.7,14.8-4.8c2.4-4.4,2.4-4.4,8.2-1.9c0.2,0.1,0.4,0.2,0.7,0.2c0,3.6,0,7.1,0,10.7
		c-3,1.1-6,2.2-9,3.3c-1.1,0.4-2.7,1-2.9,1.6c-0.2,0.7,0.6,2,1.5,2.4c3.3,1.4,6.9,2.6,10.4,3.9c0,0.9,0,1.8,0,2.7
		c-3.4-0.6-6.8-1.3-10.5-2c-3.7,5.8-5.6,12-1.6,17.8c2.7,3.9,8,7,12.1,10.5c0,3.8,0,7.5,0,11.3c-4.4-3.6-10-5.8-16.6-6.8
		c-4.1-0.6-7.3-1.9-9.6-4.5c-1.3-1.5-1-2.4,1-3.3c2.4-1.1,4.7-2.2,6.8-3.5c0.9-0.6,1.6-1.8,1.5-2.6c-0.8-3.9-2-7.7-3-11.4
		c0,0-0.5,0.6-1.2,0.9c-1.8,0.7-3.6,1.2-5.4,1.8c-0.3-1.3-1.3-2.8-0.7-4c1.7-3.3,3.9-6.4,6-9.5c0.7-1.1,1.5-2.1,2.1-2.9
		c-5.7-1.2-10.9-2.3-16.2-3.3c-0.9-0.1-2.6,0.5-3.1,1.1c-1.4,1.7-2.1,3.6-3.4,5.4c-7.5,9.8-8.4,20.5-7.8,31.3c0,0.8,1.9,2.1,2.8,2.1
		c4-0.1,8.1-0.3,12.1-1c2.5-0.4,3.9-0.1,5.8,0.9c2.8,1.5,5.8,3.2,9.1,3.7c8.2,1.4,15.1,3.9,19.8,8.9
		C210.1,307.5,210.1,315.9,210.1,324.2z M130.1,242.6c1.6,0.6,2.2,1,2.9,1.2c8,2.1,15.9,4.2,24,6.2c6.8,1.6,6.8,1.5,9.2-3
		c0.7-1.2,1.6-2.4,2.3-3.7c1-1.7,0.1-2.8-2.5-3.1c-2.3-0.3-4.6-0.3-6.8-0.6c-0.9-0.1-2.1-0.6-2.3-1.1s0.4-1.4,1.1-1.8
		c1.9-1.1,4.2-2,6.1-3.2c0.9-0.6,2-1.5,2-2.3c-0.1-0.7-1.3-1.6-2.4-2c-2.2-0.9-4.5-1.8-6.9-2.2c-1.7-0.3-4.5-0.5-5.5,0.2
		C144.1,232.1,137.4,237.3,130.1,242.6z M161.6,293.3c1.6,1.6,3.2,3.2,4.7,4.8c1,1,2.6,1.9,2.8,3c0.8,3.9,5.1,5.3,9.2,6.2
		c2.8,0.6,4.8,1.2,6.1,3.1c0.6,0.9,1.6,1.6,2.6,2.3c4.3,3,11.1,1.5,13-2.6c2.3-4.7-2.1-10.7-9-11.8c-7.2-1.1-14.2-2.9-19.6-6.9
		c-1-0.8-2.9-1.1-4.5-1.4C163.4,289.6,162.4,290.3,161.6,293.3z M136.9,260.8c0.4,0.4,0.7,0.9,1.3,1.1c4.8,1.5,9.5,3.1,14.4,4.4
		c0.9,0.2,3-0.5,3.4-1.1c1.8-3,3.2-6.2,4.9-9.3c0.8-1.4,0.1-2.2-2-2.5c-3.1-0.5-6.2-1.2-9.2-1.8c-5.5-1.1-5.5-1.1-8,2.6
		C140.1,256.4,138.5,258.5,136.9,260.8z M155.6,287c-0.2-2.7-0.2-5.1-3.3-7c-1.5-0.9-2.4-2.3-3.2-3.6c-1.7-2.7-3.1-5.5-4.9-8.2
		c-0.4-0.7-1.9-1.1-2.9-1.5c-0.3-0.1-1.3,0.5-1.6,0.9c-1.5,2.4,0.1,7.4,3.2,8.5c3.6,1.3,4.2,3.2,4.2,5.7
		C147.2,285.2,149.9,286.9,155.6,287z M134.7,233.3c0.5,0.2,1.1,0.3,1.6,0.5c1.2-1.5,2.7-2.9,3.7-4.4c1.2-1.8,2.4-3.7,3.1-5.6
		c0.5-1.6,0.4-3.2,0.3-4.9c0-0.1-1.4-0.5-1.5-0.4c-1.1,1.3-2.2,2.6-3.2,4c-0.1,0.1,0,0.2,0,0.3c-0.9,2.4-1.8,4.7-2.7,7.1
		C135.5,231,135.1,232.1,134.7,233.3z M129.8,247c0,1.1-0.4,2.3,0.1,3.3c1.3,2.5,3.1,4.9,4.6,7.3C136.9,253.6,132.3,250.5,129.8,247
		z"/>
</g>
</svg>
